# Made in Blockbench 5.1.4
mtllib flower_alpine_quill.mtl

o mesh
v -0.0828125 -0.0031249999999999993 -0.0984375
v -0.0828125 -0.0031249999999999993 -0.1203125
v -0.0828125 0.028125000000000004 -0.0984375
v -0.0828125 0.028125000000000004 -0.1203125
v -0.1046875 -0.0031249999999999993 -0.0984375
v -0.1046875 -0.0031249999999999993 -0.1203125
v -0.1046875 0.028125000000000004 -0.0984375
v -0.1046875 0.028125000000000004 -0.1203125
vt 0.0625 1
vt 0 1
vt 0 0.9375
vt 0.0625 0.9375
vt 0.0625 0.9375
vt 0.0625 1
vt 0 1
vt 0 0.9375
vt 0 0.9375
vt 0.0625 0.9375
vt 0.0625 1
vt 0 1
vt 0.0625 0.9375
vt 0.0625 1
vt 0 1
vt 0 0.9375
vt 0.0625 0.9375
vt 0.0625 1
vt 0 1
vt 0 0.9375
vt 0.0625 1
vt 0 1
vt 0 0.9375
vt 0.0625 0.9375
vn -1 0 0
vn 1 0 0
vn 0 1 0
vn 0 -1 0
vn 0 0 -1
vn 0 0 1
usemtl none
f 2/1/1 1/2/1 3/3/1 4/4/1
f 7/5/2 5/6/2 6/7/2 8/8/2
f 5/9/3 1/10/3 2/11/3 6/12/3
f 4/13/4 3/14/4 7/15/4 8/16/4
f 3/17/5 1/18/5 5/19/5 7/20/5
f 6/21/6 2/22/6 4/23/6 8/24/6
o mesh
v -0.1356239483066133 0.019547753940678786 -0.13448103864146327
v -0.13939207816661792 0.011051118437210197 -0.1357053782509421
v -0.09522004549582051 -0.00026247707841649086 -0.1213530148135566
v -0.0989881753558251 -0.008759112581885083 -0.12257735442303544
v -0.1423836950585653 0.019547753940678786 -0.11367667734750678
v -0.14615182491856987 0.011051118437210197 -0.11490101695698561
v -0.1019797922477725 -0.00026247707841649086 -0.10054865351960011
v -0.10574792210777709 -0.008759112581885083 -0.10177299312907895
vt 0.0625 1
vt 0 1
vt 0 0.9375
vt 0.0625 0.9375
vt 0.0625 0.9375
vt 0.0625 1
vt 0 1
vt 0 0.9375
vt 0 0.9375
vt 0.0625 0.9375
vt 0.0625 1
vt 0 1
vt 0.0625 0.9375
vt 0.0625 1
vt 0 1
vt 0 0.9375
vt 0.0625 0.9375
vt 0.0625 1
vt 0 1
vt 0 0.9375
vt 0.0625 1
vt 0 1
vt 0 0.9375
vt 0.0625 0.9375
vn 0.3090169943749474 1.387778780781446e-17 -0.9510565162951536
vn -0.3090169943749474 -1.387778780781446e-17 0.9510565162951536
vn -0.8619499266302463 0.42261826174069933 -0.2800645083286755
vn 0.8619499266302463 -0.42261826174069933 0.2800645083286755
vn 0.40193385173382284 0.90630778703665 0.13059622501107573
vn -0.40193385173382284 -0.90630778703665 -0.13059622501107573
usemtl none
f 10/25/7 9/26/7 11/27/7 12/28/7
f 15/29/8 13/30/8 14/31/8 16/32/8
f 13/33/9 9/34/9 10/35/9 14/36/9
f 12/37/10 11/38/10 15/39/10 16/40/10
f 11/41/11 9/42/11 13/43/11 15/44/11
f 14/45/12 10/46/12 12/47/12 16/48/12
o mesh
v -0.15677117440852137 0.01755527975013807 -0.13970927919729154
v -0.15599408031096473 0.008215954455527958 -0.13945678601916905
v -0.1360459799902968 0.019461811622743172 -0.13297525532255408
v -0.13526888589274016 0.010122486328133062 -0.1327227621444316
v -0.16256524305305164 0.01755527975013807 -0.1218769695167574
v -0.161788148955495 0.008215954455527958 -0.12162447633863491
v -0.14184004863482708 0.019461811622743172 -0.11514294564201995
v -0.14106295453727044 0.010122486328133062 -0.11489045246389745
vt 0.0625 1
vt 0 1
vt 0 0.9375
vt 0.0625 0.9375
vt 0.0625 0.9375
vt 0.0625 1
vt 0 1
vt 0 0.9375
vt 0 0.9375
vt 0.0625 0.9375
vt 0.0625 1
vt 0 1
vt 0.0625 0.9375
vt 0.0625 1
vt 0 1
vt 0 0.9375
vt 0.0625 0.9375
vt 0.0625 1
vt 0 1
vt 0 0.9375
vt 0.0625 1
vt 0 1
vt 0 0.9375
vt 0.0625 0.9375
vn 0.30901699437494745 0 -0.9510565162951538
vn -0.30901699437494745 0 0.9510565162951538
vn -0.9474374591188375 -0.08715574274766193 -0.3078410914165693
vn 0.9474374591188375 0.08715574274766193 0.3078410914165693
vn -0.08289003707270794 0.9961946980917453 -0.026932605666398608
vn 0.08289003707270794 -0.9961946980917453 0.026932605666398608
usemtl none
f 18/49/13 17/50/13 19/51/13 20/52/13
f 23/53/14 21/54/14 22/55/14 24/56/14
f 21/57/15 17/58/15 18/59/15 22/60/15
f 20/61/16 19/62/16 23/63/16 24/64/16
f 19/65/17 17/66/17 21/67/17 23/68/17
f 22/69/18 18/70/18 20/71/18 24/72/18
o plane
v -0.05808538063893173 0.025 -0.09778686271093948
v -0.09375 0.025 -0.109375
v -0.05808538063893173 3.469446951953614e-18 -0.09778686271093948
v -0.09375 3.469446951953614e-18 -0.109375
vt 0.0625 0.9375
vt 0.0625 1
vt 0 1
vt 0 0.9375
vn -0.30901699437494745 2.2204460492503136e-16 0.9510565162951536
usemtl none
f 25/73/19 26/74/19 28/75/19 27/76/19
o mesh
v -0.13056702329664313 0.019547753940678786 -0.07730870120163527
v -0.13289585562414935 0.011051118437210197 -0.07410333849024692
v -0.10559603808142577 -0.00026247707841649086 -0.11167831378821341
v -0.10792487040893199 -0.008759112581885083 -0.10847295107682506
v -0.11286977654469116 0.019547753940678786 -0.06445089880773744
v -0.11519860887219738 0.011051118437210197 -0.061245536096349064
v -0.0878987913294738 -0.00026247707841649086 -0.09882051139431557
v -0.09022762365698002 -0.008759112581885083 -0.0956151486829272
vt 0.0625 1
vt 0 1
vt 0 0.9375
vt 0.0625 0.9375
vt 0.0625 0.9375
vt 0.0625 1
vt 0 1
vt 0 0.9375
vt 0 0.9375
vt 0.0625 0.9375
vt 0.0625 1
vt 0 1
vt 0.0625 0.9375
vt 0.0625 1
vt 0 1
vt 0 0.9375
vt 0.0625 0.9375
vt 0.0625 1
vt 0 1
vt 0 0.9375
vt 0.0625 1
vt 0 1
vt 0 0.9375
vt 0.0625 0.9375
vn -0.8090169943749473 0 -0.5877852522924734
vn 0.8090169943749473 0 0.5877852522924734
vn -0.5327143512579705 0.42261826174069933 0.7332184018470006
vn 0.5327143512579705 -0.42261826174069933 -0.7332184018470006
vn 0.2484087816006635 0.9063077870366499 -0.34190535588142545
vn -0.2484087816006635 -0.9063077870366499 0.34190535588142545
usemtl none
f 30/77/20 29/78/20 31/79/20 32/80/20
f 35/81/21 33/82/21 34/83/21 36/84/21
f 33/85/22 29/86/22 30/87/22 34/88/22
f 32/89/23 31/90/23 35/91/23 36/92/23
f 31/93/24 29/94/24 33/95/24 35/96/24
f 34/97/25 30/98/25 32/99/25 36/100/25
o mesh
v -0.14207422779540127 0.01755527975013807 -0.05881210919827991
v -0.14159395723065432 0.008215954455527958 -0.05947314492053206
v -0.12926535322148888 0.019461811622743172 -0.07644201258339582
v -0.12878508265674193 0.010122486328133062 -0.07710304830564797
v -0.126905159150871 0.01755527975013807 -0.047791135717796036
v -0.12642488858612408 0.008215954455527958 -0.04845217144004819
v -0.11409628457695861 0.019461811622743172 -0.06542103910291194
v -0.11361601401221169 0.010122486328133062 -0.0660820748251641
vt 0.0625 1
vt 0 1
vt 0 0.9375
vt 0.0625 0.9375
vt 0.0625 0.9375
vt 0.0625 1
vt 0 1
vt 0 0.9375
vt 0 0.9375
vt 0.0625 0.9375
vt 0.0625 1
vt 0 1
vt 0.0625 0.9375
vt 0.0625 1
vt 0 1
vt 0 0.9375
vt 0.0625 0.9375
vt 0.0625 1
vt 0 1
vt 0 0.9375
vt 0.0625 1
vt 0 1
vt 0 0.9375
vt 0.0625 0.9375
vn -0.8090169943749473 6.938893903907231e-18 -0.5877852522924734
vn 0.8090169943749473 -6.938893903907231e-18 0.5877852522924734
vn -0.5855485519502808 -0.0871557427476619 0.8059384404624418
vn 0.5855485519502808 0.0871557427476619 -0.8059384404624418
vn -0.051228860239672366 0.9961946980917453 0.07051047704022957
vn 0.051228860239672366 -0.9961946980917453 -0.07051047704022957
usemtl none
f 38/101/26 37/102/26 39/103/26 40/104/26
f 43/105/27 41/106/27 42/107/27 44/108/27
f 41/109/28 37/110/28 38/111/28 42/112/28
f 40/113/29 39/114/29 43/115/29 44/116/29
f 39/117/30 37/118/30 41/119/30 43/120/30
f 42/121/31 38/122/31 40/123/31 44/124/31
o plane
v -0.07170805303903226 0.025 -0.13971313728906054
v -0.09375 0.025 -0.10937500000000001
v -0.07170805303903224 3.469446951953614e-18 -0.13971313728906054
v -0.09374999999999999 3.469446951953614e-18 -0.10937500000000001
vt 0.0625 0.9375
vt 0.0625 1
vt 0 1
vt 0 0.9375
vn 0.8090169943749473 2.2204460492503126e-16 0.5877852522924732
usemtl none
f 45/125/32 46/126/32 48/127/32 47/128/32
o mesh
v -0.07463022345530884 0.019547753940678786 -0.06445089880773744
v -0.07230139112780262 0.011051118437210197 -0.061245536096349064
v -0.0996012086705262 -0.00026247707841649086 -0.09882051139431557
v -0.09727237634301998 -0.008759112581885083 -0.0956151486829272
v -0.05693297670335687 0.019547753940678786 -0.07730870120163527
v -0.05460414437585065 0.011051118437210197 -0.07410333849024692
v -0.08190396191857423 -0.00026247707841649086 -0.11167831378821341
v -0.07957512959106801 -0.008759112581885083 -0.10847295107682506
vt 0.0625 1
vt 0 1
vt 0 0.9375
vt 0.0625 0.9375
vt 0.0625 0.9375
vt 0.0625 1
vt 0 1
vt 0 0.9375
vt 0 0.9375
vt 0.0625 0.9375
vt 0.0625 1
vt 0 1
vt 0.0625 0.9375
vt 0.0625 1
vt 0 1
vt 0 0.9375
vt 0.0625 0.9375
vt 0.0625 1
vt 0 1
vt 0 0.9375
vt 0.0625 1
vt 0 1
vt 0 0.9375
vt 0.0625 0.9375
vn -0.8090169943749473 0 0.5877852522924734
vn 0.8090169943749473 0 -0.5877852522924734
vn 0.5327143512579705 0.42261826174069933 0.7332184018470006
vn -0.5327143512579705 -0.42261826174069933 -0.7332184018470006
vn -0.2484087816006635 0.9063077870366499 -0.34190535588142545
vn 0.2484087816006635 -0.9063077870366499 0.34190535588142545
usemtl none
f 50/129/33 49/130/33 51/131/33 52/132/33
f 55/133/34 53/134/34 54/135/34 56/136/34
f 53/137/35 49/138/35 50/139/35 54/140/35
f 52/141/36 51/142/36 55/143/36 56/144/36
f 51/145/37 49/146/37 53/147/37 55/148/37
f 54/149/38 50/150/38 52/151/38 56/152/38
o mesh
v -0.060594840849129 0.01755527975013807 -0.047791135717796036
v -0.06107511141387593 0.008215954455527958 -0.04845217144004819
v -0.07340371542304139 0.019461811622743172 -0.06542103910291194
v -0.07388398598778831 0.010122486328133062 -0.0660820748251641
v -0.04542577220459874 0.01755527975013807 -0.05881210919827991
v -0.04590604276934567 0.008215954455527958 -0.05947314492053206
v -0.058234646778511125 0.019461811622743172 -0.07644201258339582
v -0.05871491734325805 0.010122486328133062 -0.07710304830564797
vt 0.0625 1
vt 0 1
vt 0 0.9375
vt 0.0625 0.9375
vt 0.0625 0.9375
vt 0.0625 1
vt 0 1
vt 0 0.9375
vt 0 0.9375
vt 0.0625 0.9375
vt 0.0625 1
vt 0 1
vt 0.0625 0.9375
vt 0.0625 1
vt 0 1
vt 0 0.9375
vt 0.0625 0.9375
vt 0.0625 1
vt 0 1
vt 0 0.9375
vt 0.0625 1
vt 0 1
vt 0 0.9375
vt 0.0625 0.9375
vn -0.8090169943749473 -6.938893903907231e-18 0.5877852522924734
vn 0.8090169943749473 6.938893903907231e-18 -0.5877852522924734
vn 0.5855485519502808 -0.0871557427476619 0.8059384404624418
vn -0.5855485519502808 0.0871557427476619 -0.8059384404624418
vn 0.051228860239672366 0.9961946980917453 0.07051047704022957
vn -0.051228860239672366 -0.9961946980917453 -0.07051047704022957
usemtl none
f 58/153/39 57/154/39 59/155/39 60/156/39
f 63/157/40 61/158/40 62/159/40 64/160/40
f 61/161/41 57/162/41 58/163/41 62/164/41
f 60/165/42 59/166/42 63/167/42 64/168/42
f 59/169/43 57/170/43 61/171/43 63/172/43
f 62/173/44 58/174/44 60/175/44 64/176/44
o plane
v -0.11579194696096776 0.025 -0.13971313728906054
v -0.09375000000000001 0.025 -0.10937500000000001
v -0.11579194696096774 3.469446951953614e-18 -0.13971313728906054
v -0.09375 3.469446951953614e-18 -0.10937500000000001
vt 0.0625 0.9375
vt 0.0625 1
vt 0 1
vt 0 0.9375
vn 0.8090169943749473 2.2204460492503126e-16 -0.5877852522924732
usemtl none
f 65/177/45 66/178/45 68/179/45 67/180/45
o mesh
v -0.04511630494143472 0.019547753940678786 -0.11367667734750678
v -0.04134817508143013 0.011051118437210197 -0.11490101695698561
v -0.0855202077522275 -0.00026247707841649086 -0.10054865351960011
v -0.08175207789222291 -0.008759112581885083 -0.10177299312907895
v -0.05187605169338669 0.019547753940678786 -0.13448103864146327
v -0.0481079218333821 0.011051118437210197 -0.1357053782509421
v -0.09227995450417949 -0.00026247707841649086 -0.1213530148135566
v -0.0885118246441749 -0.008759112581885083 -0.12257735442303544
vt 0.0625 1
vt 0 1
vt 0 0.9375
vt 0.0625 0.9375
vt 0.0625 0.9375
vt 0.0625 1
vt 0 1
vt 0 0.9375
vt 0 0.9375
vt 0.0625 0.9375
vt 0.0625 1
vt 0 1
vt 0.0625 0.9375
vt 0.0625 1
vt 0 1
vt 0 0.9375
vt 0.0625 0.9375
vt 0.0625 1
vt 0 1
vt 0 0.9375
vt 0.0625 1
vt 0 1
vt 0 0.9375
vt 0.0625 0.9375
vn 0.3090169943749474 -1.387778780781446e-17 0.9510565162951536
vn -0.3090169943749474 1.387778780781446e-17 -0.9510565162951536
vn 0.8619499266302463 0.42261826174069933 -0.2800645083286755
vn -0.8619499266302463 -0.42261826174069933 0.2800645083286755
vn -0.40193385173382284 0.90630778703665 0.13059622501107573
vn 0.40193385173382284 -0.90630778703665 -0.13059622501107573
usemtl none
f 70/181/46 69/182/46 71/183/46 72/184/46
f 75/185/47 73/186/47 74/187/47 76/188/47
f 73/189/48 69/190/48 70/191/48 74/192/48
f 72/193/49 71/194/49 75/195/49 76/196/49
f 71/197/50 69/198/50 73/199/50 75/200/50
f 74/201/51 70/202/51 72/203/51 76/204/51
o mesh
v -0.024934756946948362 0.01755527975013807 -0.1218769695167574
v -0.025711851044504998 0.008215954455527958 -0.12162447633863491
v -0.04565995136517293 0.019461811622743172 -0.11514294564201995
v -0.046437045462729566 0.010122486328133062 -0.11489045246389745
v -0.030728825591478624 0.01755527975013807 -0.13970927919729154
v -0.03150591968903526 0.008215954455527958 -0.13945678601916905
v -0.05145402000970319 0.019461811622743172 -0.13297525532255408
v -0.05223111410725983 0.010122486328133062 -0.1327227621444316
vt 0.0625 1
vt 0 1
vt 0 0.9375
vt 0.0625 0.9375
vt 0.0625 0.9375
vt 0.0625 1
vt 0 1
vt 0 0.9375
vt 0 0.9375
vt 0.0625 0.9375
vt 0.0625 1
vt 0 1
vt 0.0625 0.9375
vt 0.0625 1
vt 0 1
vt 0 0.9375
vt 0.0625 0.9375
vt 0.0625 1
vt 0 1
vt 0 0.9375
vt 0.0625 1
vt 0 1
vt 0 0.9375
vt 0.0625 0.9375
vn 0.30901699437494745 0 0.9510565162951538
vn -0.30901699437494745 0 -0.9510565162951538
vn 0.9474374591188375 -0.08715574274766193 -0.3078410914165693
vn -0.9474374591188375 0.08715574274766193 0.3078410914165693
vn 0.08289003707270794 0.9961946980917453 -0.026932605666398608
vn -0.08289003707270794 -0.9961946980917453 0.026932605666398608
usemtl none
f 78/205/52 77/206/52 79/207/52 80/208/52
f 83/209/53 81/210/53 82/211/53 84/212/53
f 81/213/54 77/214/54 78/215/54 82/216/54
f 80/217/55 79/218/55 83/219/55 84/220/55
f 79/221/56 77/222/56 81/223/56 83/224/56
f 82/225/57 78/226/57 80/227/57 84/228/57
o plane
v -0.12941461936106827 0.025 -0.09778686271093948
v -0.09375 0.025 -0.109375
v -0.12941461936106827 3.469446951953614e-18 -0.09778686271093948
v -0.09375 3.469446951953614e-18 -0.109375
vt 0.0625 0.9375
vt 0.0625 1
vt 0 1
vt 0 0.9375
vn -0.30901699437494745 2.2204460492503136e-16 -0.9510565162951536
usemtl none
f 85/229/58 86/230/58 88/231/58 87/232/58
o mesh
v -0.0828125 0.019547753940678786 -0.15695768400165727
v -0.0828125 0.011051118437210197 -0.1609197302054763
v -0.0828125 -0.00026247707841649086 -0.1144745064843143
v -0.0828125 -0.008759112581885083 -0.11843655268813336
v -0.1046875 0.019547753940678786 -0.15695768400165727
v -0.1046875 0.011051118437210197 -0.1609197302054763
v -0.1046875 -0.00026247707841649086 -0.1144745064843143
v -0.1046875 -0.008759112581885083 -0.11843655268813336
vt 0.0625 1
vt 0 1
vt 0 0.9375
vt 0.0625 0.9375
vt 0.0625 0.9375
vt 0.0625 1
vt 0 1
vt 0 0.9375
vt 0 0.9375
vt 0.0625 0.9375
vt 0.0625 1
vt 0 1
vt 0.0625 0.9375
vt 0.0625 1
vt 0 1
vt 0 0.9375
vt 0.0625 0.9375
vt 0.0625 1
vt 0 1
vt 0 0.9375
vt 0.0625 1
vt 0 1
vt 0 0.9375
vt 0.0625 0.9375
vn 1 0 0
vn -1 0 0
vn 0 0.4226182617406993 -0.9063077870366499
vn 0 -0.4226182617406993 0.9063077870366499
vn 0 0.9063077870366499 0.4226182617406993
vn 0 -0.9063077870366499 -0.4226182617406993
usemtl none
f 90/233/59 89/234/59 91/235/59 92/236/59
f 95/237/60 93/238/60 94/239/60 96/240/60
f 93/241/61 89/242/61 90/243/61 94/244/61
f 92/245/62 91/246/62 95/247/62 96/248/62
f 91/249/63 89/250/63 93/251/63 95/252/63
f 94/253/64 90/254/64 92/255/64 96/256/64
o mesh
v -0.084375 0.01755527975013807 -0.17868550636987515
v -0.084375 0.008215954455527958 -0.1778684212816158
v -0.084375 0.019461811622743172 -0.1568937473491182
v -0.084375 0.010122486328133062 -0.1560766622608589
v -0.103125 0.01755527975013807 -0.17868550636987515
v -0.103125 0.008215954455527958 -0.1778684212816158
v -0.103125 0.019461811622743172 -0.1568937473491182
v -0.103125 0.010122486328133062 -0.1560766622608589
vt 0.0625 1
vt 0 1
vt 0 0.9375
vt 0.0625 0.9375
vt 0.0625 0.9375
vt 0.0625 1
vt 0 1
vt 0 0.9375
vt 0 0.9375
vt 0.0625 0.9375
vt 0.0625 1
vt 0 1
vt 0.0625 0.9375
vt 0.0625 1
vt 0 1
vt 0 0.9375
vt 0.0625 0.9375
vt 0.0625 1
vt 0 1
vt 0 0.9375
vt 0.0625 1
vt 0 1
vt 0 0.9375
vt 0.0625 0.9375
vn 1 0 0
vn -1 0 0
vn 0 -0.08715574274766193 -0.9961946980917453
vn 0 0.08715574274766193 0.9961946980917453
vn 0 0.9961946980917453 -0.08715574274766193
vn 0 -0.9961946980917453 0.08715574274766193
usemtl none
f 98/257/65 97/258/65 99/259/65 100/260/65
f 103/261/66 101/262/66 102/263/66 104/264/66
f 101/265/67 97/266/67 98/267/67 102/268/67
f 100/269/68 99/270/68 103/271/68 104/272/68
f 99/273/69 97/274/69 101/275/69 103/276/69
f 102/277/70 98/278/70 100/279/70 104/280/70
o plane
v -0.09375 0.025 -0.071875
v -0.09375 0.025 -0.109375
v -0.09375 3.469446951953614e-18 -0.071875
v -0.09375 3.469446951953614e-18 -0.109375
vt 0.0625 0.9375
vt 0.0625 1
vt 0 1
vt 0 0.9375
vn -1 2.220446049250313e-16 0
usemtl none
f 105/281/71 106/282/71 108/283/71 107/284/71
o mesh
v 0.2296875 -0.0031249999999999993 0.1671875
v 0.2296875 -0.0031249999999999993 0.1453125
v 0.2296875 0.028125000000000004 0.1671875
v 0.2296875 0.028125000000000004 0.1453125
v 0.2078125 -0.0031249999999999993 0.1671875
v 0.2078125 -0.0031249999999999993 0.1453125
v 0.2078125 0.028125000000000004 0.1671875
v 0.2078125 0.028125000000000004 0.1453125
vt 0.0625 1
vt 0 1
vt 0 0.9375
vt 0.0625 0.9375
vt 0.0625 0.9375
vt 0.0625 1
vt 0 1
vt 0 0.9375
vt 0 0.9375
vt 0.0625 0.9375
vt 0.0625 1
vt 0 1
vt 0.0625 0.9375
vt 0.0625 1
vt 0 1
vt 0 0.9375
vt 0.0625 0.9375
vt 0.0625 1
vt 0 1
vt 0 0.9375
vt 0.0625 1
vt 0 1
vt 0 0.9375
vt 0.0625 0.9375
vn -1 0 0
vn 1 0 0
vn 0 1 0
vn 0 -1 0
vn 0 0 -1
vn 0 0 1
usemtl none
f 110/285/72 109/286/72 111/287/72 112/288/72
f 115/289/73 113/290/73 114/291/73 116/292/73
f 113/293/74 109/294/74 110/295/74 114/296/74
f 112/297/75 111/298/75 115/299/75 116/300/75
f 111/301/76 109/302/76 113/303/76 115/304/76
f 114/305/77 110/306/77 112/307/77 116/308/77
o mesh
v 0.1768760516933867 0.019547753940678786 0.13114396135853673
v 0.17310792183338208 0.011051118437210197 0.1299196217490579
v 0.21727995450417947 -0.00026247707841649086 0.1442719851864434
v 0.2135118246441749 -0.008759112581885083 0.14304764557696456
v 0.1701163049414347 0.019547753940678786 0.15194832265249322
v 0.16634817508143013 0.011051118437210197 0.15072398304301438
v 0.21052020775222752 -0.00026247707841649086 0.16507634648039987
v 0.2067520778922229 -0.008759112581885083 0.16385200687092105
vt 0.0625 1
vt 0 1
vt 0 0.9375
vt 0.0625 0.9375
vt 0.0625 0.9375
vt 0.0625 1
vt 0 1
vt 0 0.9375
vt 0 0.9375
vt 0.0625 0.9375
vt 0.0625 1
vt 0 1
vt 0.0625 0.9375
vt 0.0625 1
vt 0 1
vt 0 0.9375
vt 0.0625 0.9375
vt 0.0625 1
vt 0 1
vt 0 0.9375
vt 0.0625 1
vt 0 1
vt 0 0.9375
vt 0.0625 0.9375
vn 0.3090169943749474 1.387778780781446e-17 -0.9510565162951536
vn -0.3090169943749474 -1.387778780781446e-17 0.9510565162951536
vn -0.8619499266302463 0.42261826174069933 -0.2800645083286755
vn 0.8619499266302463 -0.42261826174069933 0.2800645083286755
vn 0.40193385173382284 0.90630778703665 0.13059622501107573
vn -0.40193385173382284 -0.90630778703665 -0.13059622501107573
usemtl none
f 118/309/78 117/310/78 119/311/78 120/312/78
f 123/313/79 121/314/79 122/315/79 124/316/79
f 121/317/80 117/318/80 118/319/80 122/320/80
f 120/321/81 119/322/81 123/323/81 124/324/81
f 119/325/82 117/326/82 121/327/82 123/328/82
f 122/329/83 118/330/83 120/331/83 124/332/83
o mesh
v 0.1557288255914786 0.01755527975013807 0.12591572080270846
v 0.15650591968903524 0.008215954455527958 0.12616821398083095
v 0.17645402000970317 0.019461811622743172 0.13264974467744592
v 0.1772311141072598 0.010122486328133062 0.1329022378555684
v 0.14993475694694836 0.01755527975013807 0.1437480304832426
v 0.150711851044505 0.008215954455527958 0.1440005236613651
v 0.17065995136517292 0.019461811622743172 0.15048205435798007
v 0.17143704546272956 0.010122486328133062 0.15073454753610255
vt 0.0625 1
vt 0 1
vt 0 0.9375
vt 0.0625 0.9375
vt 0.0625 0.9375
vt 0.0625 1
vt 0 1
vt 0 0.9375
vt 0 0.9375
vt 0.0625 0.9375
vt 0.0625 1
vt 0 1
vt 0.0625 0.9375
vt 0.0625 1
vt 0 1
vt 0 0.9375
vt 0.0625 0.9375
vt 0.0625 1
vt 0 1
vt 0 0.9375
vt 0.0625 1
vt 0 1
vt 0 0.9375
vt 0.0625 0.9375
vn 0.30901699437494745 0 -0.9510565162951538
vn -0.30901699437494745 0 0.9510565162951538
vn -0.9474374591188375 -0.08715574274766193 -0.3078410914165693
vn 0.9474374591188375 0.08715574274766193 0.3078410914165693
vn -0.08289003707270794 0.9961946980917453 -0.026932605666398608
vn 0.08289003707270794 -0.9961946980917453 0.026932605666398608
usemtl none
f 126/333/84 125/334/84 127/335/84 128/336/84
f 131/337/85 129/338/85 130/339/85 132/340/85
f 129/341/86 125/342/86 126/343/86 130/344/86
f 128/345/87 127/346/87 131/347/87 132/348/87
f 127/349/88 125/350/88 129/351/88 131/352/88
f 130/353/89 126/354/89 128/355/89 132/356/89
o plane
v 0.25441461936106824 0.025 0.1678381372890605
v 0.21875 0.025 0.15624999999999997
v 0.25441461936106824 3.469446951953614e-18 0.16783813728906052
v 0.21875 3.469446951953614e-18 0.15625
vt 0.0625 0.9375
vt 0.0625 1
vt 0 1
vt 0 0.9375
vn -0.30901699437494745 2.2204460492503136e-16 0.9510565162951536
usemtl none
f 133/357/90 134/358/90 136/359/90 135/360/90
o mesh
v 0.18193297670335687 0.019547753940678786 0.18831629879836473
v 0.17960414437585065 0.011051118437210197 0.19152166150975308
v 0.20690396191857424 -0.00026247707841649086 0.1539466862117866
v 0.20457512959106802 -0.008759112581885083 0.15715204892317494
v 0.19963022345530884 0.019547753940678786 0.20117410119226256
v 0.19730139112780262 0.011051118437210197 0.20437946390365094
v 0.22460120867052621 -0.00026247707841649086 0.16680448860568442
v 0.22227237634302 -0.008759112581885083 0.1700098513170728
vt 0.0625 1
vt 0 1
vt 0 0.9375
vt 0.0625 0.9375
vt 0.0625 0.9375
vt 0.0625 1
vt 0 1
vt 0 0.9375
vt 0 0.9375
vt 0.0625 0.9375
vt 0.0625 1
vt 0 1
vt 0.0625 0.9375
vt 0.0625 1
vt 0 1
vt 0 0.9375
vt 0.0625 0.9375
vt 0.0625 1
vt 0 1
vt 0 0.9375
vt 0.0625 1
vt 0 1
vt 0 0.9375
vt 0.0625 0.9375
vn -0.8090169943749473 0 -0.5877852522924734
vn 0.8090169943749473 0 0.5877852522924734
vn -0.5327143512579705 0.42261826174069933 0.7332184018470006
vn 0.5327143512579705 -0.42261826174069933 -0.7332184018470006
vn 0.2484087816006635 0.9063077870366499 -0.34190535588142545
vn -0.2484087816006635 -0.9063077870366499 0.34190535588142545
usemtl none
f 138/361/91 137/362/91 139/363/91 140/364/91
f 143/365/92 141/366/92 142/367/92 144/368/92
f 141/369/93 137/370/93 138/371/93 142/372/93
f 140/373/94 139/374/94 143/375/94 144/376/94
f 139/377/95 137/378/95 141/379/95 143/380/95
f 142/381/96 138/382/96 140/383/96 144/384/96
o mesh
v 0.17042577220459876 0.01755527975013807 0.20681289080172008
v 0.17090604276934568 0.008215954455527958 0.20615185507946793
v 0.18323464677851115 0.019461811622743172 0.1891829874166042
v 0.18371491734325807 0.010122486328133062 0.18852195169435204
v 0.18559484084912903 0.01755527975013807 0.21783386428220397
v 0.18607511141387595 0.008215954455527958 0.21717282855995182
v 0.19840371542304142 0.019461811622743172 0.20020396089708806
v 0.19888398598778834 0.010122486328133062 0.1995429251748359
vt 0.0625 1
vt 0 1
vt 0 0.9375
vt 0.0625 0.9375
vt 0.0625 0.9375
vt 0.0625 1
vt 0 1
vt 0 0.9375
vt 0 0.9375
vt 0.0625 0.9375
vt 0.0625 1
vt 0 1
vt 0.0625 0.9375
vt 0.0625 1
vt 0 1
vt 0 0.9375
vt 0.0625 0.9375
vt 0.0625 1
vt 0 1
vt 0 0.9375
vt 0.0625 1
vt 0 1
vt 0 0.9375
vt 0.0625 0.9375
vn -0.8090169943749473 6.938893903907231e-18 -0.5877852522924734
vn 0.8090169943749473 -6.938893903907231e-18 0.5877852522924734
vn -0.5855485519502808 -0.0871557427476619 0.8059384404624418
vn 0.5855485519502808 0.0871557427476619 -0.8059384404624418
vn -0.051228860239672366 0.9961946980917453 0.07051047704022957
vn 0.051228860239672366 -0.9961946980917453 -0.07051047704022957
usemtl none
f 146/385/97 145/386/97 147/387/97 148/388/97
f 151/389/98 149/390/98 150/391/98 152/392/98
f 149/393/99 145/394/99 146/395/99 150/396/99
f 148/397/100 147/398/100 151/399/100 152/400/100
f 147/401/101 145/402/101 149/403/101 151/404/101
f 150/405/102 146/406/102 148/407/102 152/408/102
o plane
v 0.24079194696096773 0.025 0.1259118627109395
v 0.21875 0.025 0.15625000000000003
v 0.24079194696096773 3.469446951953614e-18 0.1259118627109395
v 0.21875 3.469446951953614e-18 0.15625000000000003
vt 0.0625 0.9375
vt 0.0625 1
vt 0 1
vt 0 0.9375
vn 0.8090169943749473 2.2204460492503126e-16 0.5877852522924732
usemtl none
f 153/409/103 154/410/103 156/411/103 155/412/103
o mesh
v 0.23786977654469116 0.019547753940678786 0.20117410119226256
v 0.24019860887219738 0.011051118437210197 0.20437946390365094
v 0.21289879132947379 -0.00026247707841649086 0.16680448860568442
v 0.21522762365698 -0.008759112581885083 0.1700098513170728
v 0.25556702329664316 0.019547753940678786 0.18831629879836473
v 0.25789585562414935 0.011051118437210197 0.19152166150975308
v 0.23059603808142576 -0.00026247707841649086 0.1539466862117866
v 0.23292487040893198 -0.008759112581885083 0.15715204892317494
vt 0.0625 1
vt 0 1
vt 0 0.9375
vt 0.0625 0.9375
vt 0.0625 0.9375
vt 0.0625 1
vt 0 1
vt 0 0.9375
vt 0 0.9375
vt 0.0625 0.9375
vt 0.0625 1
vt 0 1
vt 0.0625 0.9375
vt 0.0625 1
vt 0 1
vt 0 0.9375
vt 0.0625 0.9375
vt 0.0625 1
vt 0 1
vt 0 0.9375
vt 0.0625 1
vt 0 1
vt 0 0.9375
vt 0.0625 0.9375
vn -0.8090169943749473 0 0.5877852522924734
vn 0.8090169943749473 0 -0.5877852522924734
vn 0.5327143512579705 0.42261826174069933 0.7332184018470006
vn -0.5327143512579705 -0.42261826174069933 -0.7332184018470006
vn -0.2484087816006635 0.9063077870366499 -0.34190535588142545
vn 0.2484087816006635 -0.9063077870366499 0.34190535588142545
usemtl none
f 158/413/104 157/414/104 159/415/104 160/416/104
f 163/417/105 161/418/105 162/419/105 164/420/105
f 161/421/106 157/422/106 158/423/106 162/424/106
f 160/425/107 159/426/107 163/427/107 164/428/107
f 159/429/108 157/430/108 161/431/108 163/432/108
f 162/433/109 158/434/109 160/435/109 164/436/109
o mesh
v 0.25190515915087097 0.01755527975013807 0.21783386428220397
v 0.25142488858612405 0.008215954455527958 0.21717282855995182
v 0.23909628457695858 0.019461811622743172 0.20020396089708806
v 0.23861601401221166 0.010122486328133062 0.1995429251748359
v 0.26707422779540124 0.01755527975013807 0.20681289080172008
v 0.2665939572306543 0.008215954455527958 0.20615185507946793
v 0.25426535322148885 0.019461811622743172 0.1891829874166042
v 0.25378508265674193 0.010122486328133062 0.18852195169435204
vt 0.0625 1
vt 0 1
vt 0 0.9375
vt 0.0625 0.9375
vt 0.0625 0.9375
vt 0.0625 1
vt 0 1
vt 0 0.9375
vt 0 0.9375
vt 0.0625 0.9375
vt 0.0625 1
vt 0 1
vt 0.0625 0.9375
vt 0.0625 1
vt 0 1
vt 0 0.9375
vt 0.0625 0.9375
vt 0.0625 1
vt 0 1
vt 0 0.9375
vt 0.0625 1
vt 0 1
vt 0 0.9375
vt 0.0625 0.9375
vn -0.8090169943749473 -6.938893903907231e-18 0.5877852522924734
vn 0.8090169943749473 6.938893903907231e-18 -0.5877852522924734
vn 0.5855485519502808 -0.0871557427476619 0.8059384404624418
vn -0.5855485519502808 0.0871557427476619 -0.8059384404624418
vn 0.051228860239672366 0.9961946980917453 0.07051047704022957
vn -0.051228860239672366 -0.9961946980917453 -0.07051047704022957
usemtl none
f 166/437/110 165/438/110 167/439/110 168/440/110
f 171/441/111 169/442/111 170/443/111 172/444/111
f 169/445/112 165/446/112 166/447/112 170/448/112
f 168/449/113 167/450/113 171/451/113 172/452/113
f 167/453/114 165/454/114 169/455/114 171/456/114
f 170/457/115 166/458/115 168/459/115 172/460/115
o plane
v 0.19670805303903227 0.025 0.1259118627109395
v 0.21875 0.025 0.15625000000000003
v 0.19670805303903227 3.469446951953614e-18 0.1259118627109395
v 0.21875 3.469446951953614e-18 0.15625000000000003
vt 0.0625 0.9375
vt 0.0625 1
vt 0 1
vt 0 0.9375
vn 0.8090169943749473 2.2204460492503126e-16 -0.5877852522924732
usemtl none
f 173/461/116 174/462/116 176/463/116 175/464/116
o mesh
v 0.2673836950585653 0.019547753940678786 0.15194832265249322
v 0.2711518249185699 0.011051118437210197 0.15072398304301438
v 0.22697979224777248 -0.00026247707841649086 0.16507634648039987
v 0.2307479221077771 -0.008759112581885083 0.16385200687092105
v 0.2606239483066133 0.019547753940678786 0.13114396135853673
v 0.2643920781666179 0.011051118437210197 0.1299196217490579
v 0.22022004549582053 -0.00026247707841649086 0.1442719851864434
v 0.2239881753558251 -0.008759112581885083 0.14304764557696456
vt 0.0625 1
vt 0 1
vt 0 0.9375
vt 0.0625 0.9375
vt 0.0625 0.9375
vt 0.0625 1
vt 0 1
vt 0 0.9375
vt 0 0.9375
vt 0.0625 0.9375
vt 0.0625 1
vt 0 1
vt 0.0625 0.9375
vt 0.0625 1
vt 0 1
vt 0 0.9375
vt 0.0625 0.9375
vt 0.0625 1
vt 0 1
vt 0 0.9375
vt 0.0625 1
vt 0 1
vt 0 0.9375
vt 0.0625 0.9375
vn 0.3090169943749474 -1.387778780781446e-17 0.9510565162951536
vn -0.3090169943749474 1.387778780781446e-17 -0.9510565162951536
vn 0.8619499266302463 0.42261826174069933 -0.2800645083286755
vn -0.8619499266302463 -0.42261826174069933 0.2800645083286755
vn -0.40193385173382284 0.90630778703665 0.13059622501107573
vn 0.40193385173382284 -0.90630778703665 -0.13059622501107573
usemtl none
f 178/465/117 177/466/117 179/467/117 180/468/117
f 183/469/118 181/470/118 182/471/118 184/472/118
f 181/473/119 177/474/119 178/475/119 182/476/119
f 180/477/120 179/478/120 183/479/120 184/480/120
f 179/481/121 177/482/121 181/483/121 183/484/121
f 182/485/122 178/486/122 180/487/122 184/488/122
o mesh
v 0.28756524305305164 0.01755527975013807 0.1437480304832426
v 0.28678814895549504 0.008215954455527958 0.1440005236613651
v 0.2668400486348271 0.019461811622743172 0.15048205435798007
v 0.26606295453727047 0.010122486328133062 0.15073454753610255
v 0.2817711744085214 0.01755527975013807 0.12591572080270846
v 0.28099408031096473 0.008215954455527958 0.12616821398083095
v 0.26104597999029683 0.019461811622743172 0.13264974467744592
v 0.26026888589274016 0.010122486328133062 0.1329022378555684
vt 0.0625 1
vt 0 1
vt 0 0.9375
vt 0.0625 0.9375
vt 0.0625 0.9375
vt 0.0625 1
vt 0 1
vt 0 0.9375
vt 0 0.9375
vt 0.0625 0.9375
vt 0.0625 1
vt 0 1
vt 0.0625 0.9375
vt 0.0625 1
vt 0 1
vt 0 0.9375
vt 0.0625 0.9375
vt 0.0625 1
vt 0 1
vt 0 0.9375
vt 0.0625 1
vt 0 1
vt 0 0.9375
vt 0.0625 0.9375
vn 0.30901699437494745 0 0.9510565162951538
vn -0.30901699437494745 0 -0.9510565162951538
vn 0.9474374591188375 -0.08715574274766193 -0.3078410914165693
vn -0.9474374591188375 0.08715574274766193 0.3078410914165693
vn 0.08289003707270794 0.9961946980917453 -0.026932605666398608
vn -0.08289003707270794 -0.9961946980917453 0.026932605666398608
usemtl none
f 186/489/123 185/490/123 187/491/123 188/492/123
f 191/493/124 189/494/124 190/495/124 192/496/124
f 189/497/125 185/498/125 186/499/125 190/500/125
f 188/501/126 187/502/126 191/503/126 192/504/126
f 187/505/127 185/506/127 189/507/127 191/508/127
f 190/509/128 186/510/128 188/511/128 192/512/128
o plane
v 0.18308538063893176 0.025 0.16783813728906052
v 0.21875 0.025 0.15625
v 0.18308538063893176 3.469446951953614e-18 0.1678381372890605
v 0.21875 3.469446951953614e-18 0.15624999999999997
vt 0.0625 0.9375
vt 0.0625 1
vt 0 1
vt 0 0.9375
vn -0.30901699437494745 2.2204460492503136e-16 -0.9510565162951536
usemtl none
f 193/513/129 194/514/129 196/515/129 195/516/129
o mesh
v 0.2296875 0.019547753940678786 0.10866731599834273
v 0.2296875 0.011051118437210197 0.10470526979452369
v 0.2296875 -0.00026247707841649086 0.1511504935156857
v 0.2296875 -0.008759112581885083 0.14718844731186664
v 0.2078125 0.019547753940678786 0.10866731599834273
v 0.2078125 0.011051118437210197 0.10470526979452369
v 0.2078125 -0.00026247707841649086 0.1511504935156857
v 0.2078125 -0.008759112581885083 0.14718844731186664
vt 0.0625 1
vt 0 1
vt 0 0.9375
vt 0.0625 0.9375
vt 0.0625 0.9375
vt 0.0625 1
vt 0 1
vt 0 0.9375
vt 0 0.9375
vt 0.0625 0.9375
vt 0.0625 1
vt 0 1
vt 0.0625 0.9375
vt 0.0625 1
vt 0 1
vt 0 0.9375
vt 0.0625 0.9375
vt 0.0625 1
vt 0 1
vt 0 0.9375
vt 0.0625 1
vt 0 1
vt 0 0.9375
vt 0.0625 0.9375
vn 1 0 0
vn -1 0 0
vn 0 0.4226182617406993 -0.9063077870366499
vn 0 -0.4226182617406993 0.9063077870366499
vn 0 0.9063077870366499 0.4226182617406993
vn 0 -0.9063077870366499 -0.4226182617406993
usemtl none
f 198/517/130 197/518/130 199/519/130 200/520/130
f 203/521/131 201/522/131 202/523/131 204/524/131
f 201/525/132 197/526/132 198/527/132 202/528/132
f 200/529/133 199/530/133 203/531/133 204/532/133
f 199/533/134 197/534/134 201/535/134 203/536/134
f 202/537/135 198/538/135 200/539/135 204/540/135
o mesh
v 0.228125 0.01755527975013807 0.08693949363012485
v 0.228125 0.008215954455527958 0.08775657871838419
v 0.228125 0.019461811622743172 0.10873125265088178
v 0.228125 0.010122486328133062 0.1095483377391411
v 0.209375 0.01755527975013807 0.08693949363012485
v 0.209375 0.008215954455527958 0.08775657871838419
v 0.209375 0.019461811622743172 0.10873125265088178
v 0.209375 0.010122486328133062 0.1095483377391411
vt 0.0625 1
vt 0 1
vt 0 0.9375
vt 0.0625 0.9375
vt 0.0625 0.9375
vt 0.0625 1
vt 0 1
vt 0 0.9375
vt 0 0.9375
vt 0.0625 0.9375
vt 0.0625 1
vt 0 1
vt 0.0625 0.9375
vt 0.0625 1
vt 0 1
vt 0 0.9375
vt 0.0625 0.9375
vt 0.0625 1
vt 0 1
vt 0 0.9375
vt 0.0625 1
vt 0 1
vt 0 0.9375
vt 0.0625 0.9375
vn 1 0 0
vn -1 0 0
vn 0 -0.08715574274766193 -0.9961946980917453
vn 0 0.08715574274766193 0.9961946980917453
vn 0 0.9961946980917453 -0.08715574274766193
vn 0 -0.9961946980917453 0.08715574274766193
usemtl none
f 206/541/136 205/542/136 207/543/136 208/544/136
f 211/545/137 209/546/137 210/547/137 212/548/137
f 209/549/138 205/550/138 206/551/138 210/552/138
f 208/553/139 207/554/139 211/555/139 212/556/139
f 207/557/140 205/558/140 209/559/140 211/560/140
f 210/561/141 206/562/141 208/563/141 212/564/141
o plane
v 0.21875 0.025 0.19374999999999998
v 0.21875 0.025 0.15625
v 0.21875 3.469446951953614e-18 0.19374999999999998
v 0.21875 3.469446951953614e-18 0.15625
vt 0.0625 0.9375
vt 0.0625 1
vt 0 1
vt 0 0.9375
vn -1 2.220446049250313e-16 0
usemtl none
f 213/565/142 214/566/142 216/567/142 215/568/142
o mesh
v -0.1140625 -0.0031249999999999993 0.1359375
v -0.1140625 -0.0031249999999999993 0.1140625
v -0.1140625 0.028125000000000004 0.1359375
v -0.1140625 0.028125000000000004 0.1140625
v -0.1359375 -0.0031249999999999993 0.1359375
v -0.1359375 -0.0031249999999999993 0.1140625
v -0.1359375 0.028125000000000004 0.1359375
v -0.1359375 0.028125000000000004 0.1140625
vt 0.0625 1
vt 0 1
vt 0 0.9375
vt 0.0625 0.9375
vt 0.0625 0.9375
vt 0.0625 1
vt 0 1
vt 0 0.9375
vt 0 0.9375
vt 0.0625 0.9375
vt 0.0625 1
vt 0 1
vt 0.0625 0.9375
vt 0.0625 1
vt 0 1
vt 0 0.9375
vt 0.0625 0.9375
vt 0.0625 1
vt 0 1
vt 0 0.9375
vt 0.0625 1
vt 0 1
vt 0 0.9375
vt 0.0625 0.9375
vn -1 0 0
vn 1 0 0
vn 0 1 0
vn 0 -1 0
vn 0 0 -1
vn 0 0 1
usemtl none
f 218/569/143 217/570/143 219/571/143 220/572/143
f 223/573/144 221/574/144 222/575/144 224/576/144
f 221/577/145 217/578/145 218/579/145 222/580/145
f 220/581/146 219/582/146 223/583/146 224/584/146
f 219/585/147 217/586/147 221/587/147 223/588/147
f 222/589/148 218/590/148 220/591/148 224/592/148
o mesh
v -0.1668739483066133 0.019547753940678786 0.09989396135853673
v -0.17064207816661792 0.011051118437210197 0.0986696217490579
v -0.12647004549582053 -0.00026247707841649086 0.1130219851864434
v -0.1302381753558251 -0.008759112581885083 0.11179764557696456
v -0.1736336950585653 0.019547753940678786 0.12069832265249322
v -0.17740182491856987 0.011051118437210197 0.11947398304301439
v -0.13322979224777248 -0.00026247707841649086 0.13382634648039987
v -0.1369979221077771 -0.008759112581885083 0.13260200687092105
vt 0.0625 1
vt 0 1
vt 0 0.9375
vt 0.0625 0.9375
vt 0.0625 0.9375
vt 0.0625 1
vt 0 1
vt 0 0.9375
vt 0 0.9375
vt 0.0625 0.9375
vt 0.0625 1
vt 0 1
vt 0.0625 0.9375
vt 0.0625 1
vt 0 1
vt 0 0.9375
vt 0.0625 0.9375
vt 0.0625 1
vt 0 1
vt 0 0.9375
vt 0.0625 1
vt 0 1
vt 0 0.9375
vt 0.0625 0.9375
vn 0.3090169943749474 1.387778780781446e-17 -0.9510565162951536
vn -0.3090169943749474 -1.387778780781446e-17 0.9510565162951536
vn -0.8619499266302463 0.42261826174069933 -0.2800645083286755
vn 0.8619499266302463 -0.42261826174069933 0.2800645083286755
vn 0.40193385173382284 0.90630778703665 0.13059622501107573
vn -0.40193385173382284 -0.90630778703665 -0.13059622501107573
usemtl none
f 226/593/149 225/594/149 227/595/149 228/596/149
f 231/597/150 229/598/150 230/599/150 232/600/150
f 229/601/151 225/602/151 226/603/151 230/604/151
f 228/605/152 227/606/152 231/607/152 232/608/152
f 227/609/153 225/610/153 229/611/153 231/612/153
f 230/613/154 226/614/154 228/615/154 232/616/154
o mesh
v -0.1880211744085214 0.01755527975013807 0.09466572080270846
v -0.18724408031096476 0.008215954455527958 0.09491821398083096
v -0.16729597999029683 0.019461811622743172 0.10139974467744592
v -0.1665188858927402 0.010122486328133062 0.1016522378555684
v -0.19381524305305164 0.01755527975013807 0.1124980304832426
v -0.193038148955495 0.008215954455527958 0.11275052366136509
v -0.17309004863482708 0.019461811622743172 0.11923205435798005
v -0.17231295453727044 0.010122486328133062 0.11948454753610255
vt 0.0625 1
vt 0 1
vt 0 0.9375
vt 0.0625 0.9375
vt 0.0625 0.9375
vt 0.0625 1
vt 0 1
vt 0 0.9375
vt 0 0.9375
vt 0.0625 0.9375
vt 0.0625 1
vt 0 1
vt 0.0625 0.9375
vt 0.0625 1
vt 0 1
vt 0 0.9375
vt 0.0625 0.9375
vt 0.0625 1
vt 0 1
vt 0 0.9375
vt 0.0625 1
vt 0 1
vt 0 0.9375
vt 0.0625 0.9375
vn 0.30901699437494745 0 -0.9510565162951538
vn -0.30901699437494745 0 0.9510565162951538
vn -0.9474374591188375 -0.08715574274766193 -0.3078410914165693
vn 0.9474374591188375 0.08715574274766193 0.3078410914165693
vn -0.08289003707270794 0.9961946980917453 -0.026932605666398608
vn 0.08289003707270794 -0.9961946980917453 0.026932605666398608
usemtl none
f 234/617/155 233/618/155 235/619/155 236/620/155
f 239/621/156 237/622/156 238/623/156 240/624/156
f 237/625/157 233/626/157 234/627/157 238/628/157
f 236/629/158 235/630/158 239/631/158 240/632/158
f 235/633/159 233/634/159 237/635/159 239/636/159
f 238/637/160 234/638/160 236/639/160 240/640/160
o plane
v -0.08933538063893175 0.025 0.1365881372890605
v -0.125 0.025 0.12499999999999999
v -0.08933538063893175 3.469446951953614e-18 0.13658813728906052
v -0.125 3.469446951953614e-18 0.12499999999999999
vt 0.0625 0.9375
vt 0.0625 1
vt 0 1
vt 0 0.9375
vn -0.30901699437494745 2.2204460492503136e-16 0.9510565162951536
usemtl none
f 241/641/161 242/642/161 244/643/161 243/644/161
o mesh
v -0.16181702329664313 0.019547753940678786 0.15706629879836473
v -0.16414585562414935 0.011051118437210197 0.16027166150975308
v -0.13684603808142576 -0.00026247707841649086 0.12269668621178659
v -0.13917487040893198 -0.008759112581885083 0.12590204892317494
v -0.14411977654469116 0.019547753940678786 0.16992410119226256
v -0.14644860887219738 0.011051118437210197 0.17312946390365094
v -0.1191487913294738 -0.00026247707841649086 0.13555448860568442
v -0.12147762365698002 -0.008759112581885083 0.1387598513170728
vt 0.0625 1
vt 0 1
vt 0 0.9375
vt 0.0625 0.9375
vt 0.0625 0.9375
vt 0.0625 1
vt 0 1
vt 0 0.9375
vt 0 0.9375
vt 0.0625 0.9375
vt 0.0625 1
vt 0 1
vt 0.0625 0.9375
vt 0.0625 1
vt 0 1
vt 0 0.9375
vt 0.0625 0.9375
vt 0.0625 1
vt 0 1
vt 0 0.9375
vt 0.0625 1
vt 0 1
vt 0 0.9375
vt 0.0625 0.9375
vn -0.8090169943749473 0 -0.5877852522924734
vn 0.8090169943749473 0 0.5877852522924734
vn -0.5327143512579705 0.42261826174069933 0.7332184018470006
vn 0.5327143512579705 -0.42261826174069933 -0.7332184018470006
vn 0.2484087816006635 0.9063077870366499 -0.34190535588142545
vn -0.2484087816006635 -0.9063077870366499 0.34190535588142545
usemtl none
f 246/645/162 245/646/162 247/647/162 248/648/162
f 251/649/163 249/650/163 250/651/163 252/652/163
f 249/653/164 245/654/164 246/655/164 250/656/164
f 248/657/165 247/658/165 251/659/165 252/660/165
f 247/661/166 245/662/166 249/663/166 251/664/166
f 250/665/167 246/666/167 248/667/167 252/668/167
o mesh
v -0.17332422779540127 0.01755527975013807 0.17556289080172008
v -0.17284395723065435 0.008215954455527958 0.17490185507946793
v -0.16051535322148888 0.019461811622743172 0.1579329874166042
v -0.16003508265674196 0.010122486328133062 0.15727195169435204
v -0.15815515915087103 0.01755527975013807 0.18658386428220397
v -0.15767488858612408 0.008215954455527958 0.18592282855995182
v -0.14534628457695864 0.019461811622743172 0.16895396089708806
v -0.1448660140122117 0.010122486328133062 0.1682929251748359
vt 0.0625 1
vt 0 1
vt 0 0.9375
vt 0.0625 0.9375
vt 0.0625 0.9375
vt 0.0625 1
vt 0 1
vt 0 0.9375
vt 0 0.9375
vt 0.0625 0.9375
vt 0.0625 1
vt 0 1
vt 0.0625 0.9375
vt 0.0625 1
vt 0 1
vt 0 0.9375
vt 0.0625 0.9375
vt 0.0625 1
vt 0 1
vt 0 0.9375
vt 0.0625 1
vt 0 1
vt 0 0.9375
vt 0.0625 0.9375
vn -0.8090169943749473 6.938893903907231e-18 -0.5877852522924734
vn 0.8090169943749473 -6.938893903907231e-18 0.5877852522924734
vn -0.5855485519502808 -0.0871557427476619 0.8059384404624418
vn 0.5855485519502808 0.0871557427476619 -0.8059384404624418
vn -0.051228860239672366 0.9961946980917453 0.07051047704022957
vn 0.051228860239672366 -0.9961946980917453 -0.07051047704022957
usemtl none
f 254/669/168 253/670/168 255/671/168 256/672/168
f 259/673/169 257/674/169 258/675/169 260/676/169
f 257/677/170 253/678/170 254/679/170 258/680/170
f 256/681/171 255/682/171 259/683/171 260/684/171
f 255/685/172 253/686/172 257/687/172 259/688/172
f 258/689/173 254/690/173 256/691/173 260/692/173
o plane
v -0.10295805303903227 0.025 0.09466186271093949
v -0.125 0.025 0.125
v -0.10295805303903226 3.469446951953614e-18 0.09466186271093949
v -0.125 3.469446951953614e-18 0.125
vt 0.0625 0.9375
vt 0.0625 1
vt 0 1
vt 0 0.9375
vn 0.8090169943749473 2.2204460492503126e-16 0.5877852522924732
usemtl none
f 261/693/174 262/694/174 264/695/174 263/696/174
o mesh
v -0.10588022345530884 0.019547753940678786 0.16992410119226256
v -0.10355139112780262 0.011051118437210197 0.17312946390365094
v -0.13085120867052621 -0.00026247707841649086 0.13555448860568442
v -0.12852237634302 -0.008759112581885083 0.1387598513170728
v -0.08818297670335687 0.019547753940678786 0.15706629879836473
v -0.08585414437585065 0.011051118437210197 0.16027166150975308
v -0.11315396191857423 -0.00026247707841649086 0.12269668621178659
v -0.11082512959106801 -0.008759112581885083 0.12590204892317494
vt 0.0625 1
vt 0 1
vt 0 0.9375
vt 0.0625 0.9375
vt 0.0625 0.9375
vt 0.0625 1
vt 0 1
vt 0 0.9375
vt 0 0.9375
vt 0.0625 0.9375
vt 0.0625 1
vt 0 1
vt 0.0625 0.9375
vt 0.0625 1
vt 0 1
vt 0 0.9375
vt 0.0625 0.9375
vt 0.0625 1
vt 0 1
vt 0 0.9375
vt 0.0625 1
vt 0 1
vt 0 0.9375
vt 0.0625 0.9375
vn -0.8090169943749473 0 0.5877852522924734
vn 0.8090169943749473 0 -0.5877852522924734
vn 0.5327143512579705 0.42261826174069933 0.7332184018470006
vn -0.5327143512579705 -0.42261826174069933 -0.7332184018470006
vn -0.2484087816006635 0.9063077870366499 -0.34190535588142545
vn 0.2484087816006635 -0.9063077870366499 0.34190535588142545
usemtl none
f 266/697/175 265/698/175 267/699/175 268/700/175
f 271/701/176 269/702/176 270/703/176 272/704/176
f 269/705/177 265/706/177 266/707/177 270/708/177
f 268/709/178 267/710/178 271/711/178 272/712/178
f 267/713/179 265/714/179 269/715/179 271/716/179
f 270/717/180 266/718/180 268/719/180 272/720/180
o mesh
v -0.09184484084912899 0.01755527975013807 0.18658386428220397
v -0.09232511141387592 0.008215954455527958 0.18592282855995182
v -0.10465371542304137 0.019461811622743172 0.16895396089708806
v -0.10513398598778831 0.010122486328133062 0.1682929251748359
v -0.07667577220459873 0.01755527975013807 0.17556289080172008
v -0.07715604276934565 0.008215954455527958 0.17490185507946793
v -0.08948464677851112 0.019461811622743172 0.1579329874166042
v -0.08996491734325804 0.010122486328133062 0.15727195169435204
vt 0.0625 1
vt 0 1
vt 0 0.9375
vt 0.0625 0.9375
vt 0.0625 0.9375
vt 0.0625 1
vt 0 1
vt 0 0.9375
vt 0 0.9375
vt 0.0625 0.9375
vt 0.0625 1
vt 0 1
vt 0.0625 0.9375
vt 0.0625 1
vt 0 1
vt 0 0.9375
vt 0.0625 0.9375
vt 0.0625 1
vt 0 1
vt 0 0.9375
vt 0.0625 1
vt 0 1
vt 0 0.9375
vt 0.0625 0.9375
vn -0.8090169943749473 -6.938893903907231e-18 0.5877852522924734
vn 0.8090169943749473 6.938893903907231e-18 -0.5877852522924734
vn 0.5855485519502808 -0.0871557427476619 0.8059384404624418
vn -0.5855485519502808 0.0871557427476619 -0.8059384404624418
vn 0.051228860239672366 0.9961946980917453 0.07051047704022957
vn -0.051228860239672366 -0.9961946980917453 -0.07051047704022957
usemtl none
f 274/721/181 273/722/181 275/723/181 276/724/181
f 279/725/182 277/726/182 278/727/182 280/728/182
f 277/729/183 273/730/183 274/731/183 278/732/183
f 276/733/184 275/734/184 279/735/184 280/736/184
f 275/737/185 273/738/185 277/739/185 279/740/185
f 278/741/186 274/742/186 276/743/186 280/744/186
o plane
v -0.14704194696096773 0.025 0.09466186271093949
v -0.125 0.025 0.125
v -0.14704194696096773 3.469446951953614e-18 0.09466186271093949
v -0.12499999999999999 3.469446951953614e-18 0.125
vt 0.0625 0.9375
vt 0.0625 1
vt 0 1
vt 0 0.9375
vn 0.8090169943749473 2.2204460492503126e-16 -0.5877852522924732
usemtl none
f 281/745/187 282/746/187 284/747/187 283/748/187
o mesh
v -0.07636630494143472 0.019547753940678786 0.12069832265249322
v -0.07259817508143013 0.011051118437210197 0.11947398304301439
v -0.1167702077522275 -0.00026247707841649086 0.13382634648039987
v -0.11300207789222291 -0.008759112581885083 0.13260200687092105
v -0.08312605169338669 0.019547753940678786 0.09989396135853673
v -0.0793579218333821 0.011051118437210197 0.0986696217490579
v -0.12352995450417949 -0.00026247707841649086 0.1130219851864434
v -0.1197618246441749 -0.008759112581885083 0.11179764557696456
vt 0.0625 1
vt 0 1
vt 0 0.9375
vt 0.0625 0.9375
vt 0.0625 0.9375
vt 0.0625 1
vt 0 1
vt 0 0.9375
vt 0 0.9375
vt 0.0625 0.9375
vt 0.0625 1
vt 0 1
vt 0.0625 0.9375
vt 0.0625 1
vt 0 1
vt 0 0.9375
vt 0.0625 0.9375
vt 0.0625 1
vt 0 1
vt 0 0.9375
vt 0.0625 1
vt 0 1
vt 0 0.9375
vt 0.0625 0.9375
vn 0.3090169943749474 -1.387778780781446e-17 0.9510565162951536
vn -0.3090169943749474 1.387778780781446e-17 -0.9510565162951536
vn 0.8619499266302463 0.42261826174069933 -0.2800645083286755
vn -0.8619499266302463 -0.42261826174069933 0.2800645083286755
vn -0.40193385173382284 0.90630778703665 0.13059622501107573
vn 0.40193385173382284 -0.90630778703665 -0.13059622501107573
usemtl none
f 286/749/188 285/750/188 287/751/188 288/752/188
f 291/753/189 289/754/189 290/755/189 292/756/189
f 289/757/190 285/758/190 286/759/190 290/760/190
f 288/761/191 287/762/191 291/763/191 292/764/191
f 287/765/192 285/766/192 289/767/192 291/768/192
f 290/769/193 286/770/193 288/771/193 292/772/193
o mesh
v -0.05618475694694835 0.01755527975013807 0.1124980304832426
v -0.056961851044504984 0.008215954455527958 0.11275052366136509
v -0.07690995136517292 0.019461811622743172 0.11923205435798005
v -0.07768704546272956 0.010122486328133062 0.11948454753610255
v -0.06197882559147861 0.01755527975013807 0.09466572080270846
v -0.06275591968903524 0.008215954455527958 0.09491821398083096
v -0.08270402000970317 0.019461811622743172 0.10139974467744592
v -0.08348111410725981 0.010122486328133062 0.1016522378555684
vt 0.0625 1
vt 0 1
vt 0 0.9375
vt 0.0625 0.9375
vt 0.0625 0.9375
vt 0.0625 1
vt 0 1
vt 0 0.9375
vt 0 0.9375
vt 0.0625 0.9375
vt 0.0625 1
vt 0 1
vt 0.0625 0.9375
vt 0.0625 1
vt 0 1
vt 0 0.9375
vt 0.0625 0.9375
vt 0.0625 1
vt 0 1
vt 0 0.9375
vt 0.0625 1
vt 0 1
vt 0 0.9375
vt 0.0625 0.9375
vn 0.30901699437494745 0 0.9510565162951538
vn -0.30901699437494745 0 -0.9510565162951538
vn 0.9474374591188375 -0.08715574274766193 -0.3078410914165693
vn -0.9474374591188375 0.08715574274766193 0.3078410914165693
vn 0.08289003707270794 0.9961946980917453 -0.026932605666398608
vn -0.08289003707270794 -0.9961946980917453 0.026932605666398608
usemtl none
f 294/773/194 293/774/194 295/775/194 296/776/194
f 299/777/195 297/778/195 298/779/195 300/780/195
f 297/781/196 293/782/196 294/783/196 298/784/196
f 296/785/197 295/786/197 299/787/197 300/788/197
f 295/789/198 293/790/198 297/791/198 299/792/198
f 298/793/199 294/794/199 296/795/199 300/796/199
o plane
v -0.16066461936106824 0.025 0.13658813728906052
v -0.12499999999999999 0.025 0.12499999999999999
v -0.16066461936106824 3.469446951953614e-18 0.1365881372890605
v -0.12499999999999999 3.469446951953614e-18 0.12499999999999999
vt 0.0625 0.9375
vt 0.0625 1
vt 0 1
vt 0 0.9375
vn -0.30901699437494745 2.2204460492503136e-16 -0.9510565162951536
usemtl none
f 301/797/200 302/798/200 304/799/200 303/800/200
o mesh
v -0.1140625 0.019547753940678786 0.07741731599834273
v -0.1140625 0.011051118437210197 0.07345526979452369
v -0.1140625 -0.00026247707841649086 0.1199004935156857
v -0.1140625 -0.008759112581885083 0.11593844731186664
v -0.1359375 0.019547753940678786 0.07741731599834273
v -0.1359375 0.011051118437210197 0.07345526979452369
v -0.1359375 -0.00026247707841649086 0.1199004935156857
v -0.1359375 -0.008759112581885083 0.11593844731186664
vt 0.0625 1
vt 0 1
vt 0 0.9375
vt 0.0625 0.9375
vt 0.0625 0.9375
vt 0.0625 1
vt 0 1
vt 0 0.9375
vt 0 0.9375
vt 0.0625 0.9375
vt 0.0625 1
vt 0 1
vt 0.0625 0.9375
vt 0.0625 1
vt 0 1
vt 0 0.9375
vt 0.0625 0.9375
vt 0.0625 1
vt 0 1
vt 0 0.9375
vt 0.0625 1
vt 0 1
vt 0 0.9375
vt 0.0625 0.9375
vn 1 0 0
vn -1 0 0
vn 0 0.4226182617406993 -0.9063077870366499
vn 0 -0.4226182617406993 0.9063077870366499
vn 0 0.9063077870366499 0.4226182617406993
vn 0 -0.9063077870366499 -0.4226182617406993
usemtl none
f 306/801/201 305/802/201 307/803/201 308/804/201
f 311/805/202 309/806/202 310/807/202 312/808/202
f 309/809/203 305/810/203 306/811/203 310/812/203
f 308/813/204 307/814/204 311/815/204 312/816/204
f 307/817/205 305/818/205 309/819/205 311/820/205
f 310/821/206 306/822/206 308/823/206 312/824/206
o mesh
v -0.115625 0.01755527975013807 0.05568949363012484
v -0.115625 0.008215954455527958 0.056506578718384166
v -0.115625 0.019461811622743172 0.07748125265088177
v -0.115625 0.010122486328133062 0.0782983377391411
v -0.134375 0.01755527975013807 0.05568949363012484
v -0.134375 0.008215954455527958 0.056506578718384166
v -0.134375 0.019461811622743172 0.07748125265088177
v -0.134375 0.010122486328133062 0.0782983377391411
vt 0.0625 1
vt 0 1
vt 0 0.9375
vt 0.0625 0.9375
vt 0.0625 0.9375
vt 0.0625 1
vt 0 1
vt 0 0.9375
vt 0 0.9375
vt 0.0625 0.9375
vt 0.0625 1
vt 0 1
vt 0.0625 0.9375
vt 0.0625 1
vt 0 1
vt 0 0.9375
vt 0.0625 0.9375
vt 0.0625 1
vt 0 1
vt 0 0.9375
vt 0.0625 1
vt 0 1
vt 0 0.9375
vt 0.0625 0.9375
vn 1 0 0
vn -1 0 0
vn 0 -0.08715574274766193 -0.9961946980917453
vn 0 0.08715574274766193 0.9961946980917453
vn 0 0.9961946980917453 -0.08715574274766193
vn 0 -0.9961946980917453 0.08715574274766193
usemtl none
f 314/825/207 313/826/207 315/827/207 316/828/207
f 319/829/208 317/830/208 318/831/208 320/832/208
f 317/833/209 313/834/209 314/835/209 318/836/209
f 316/837/210 315/838/210 319/839/210 320/840/210
f 315/841/211 313/842/211 317/843/211 319/844/211
f 318/845/212 314/846/212 316/847/212 320/848/212
o plane
v -0.125 0.025 0.16249999999999998
v -0.125 0.025 0.12499999999999999
v -0.125 3.469446951953614e-18 0.16249999999999998
v -0.125 3.469446951953614e-18 0.12499999999999999
vt 0.0625 0.9375
vt 0.0625 1
vt 0 1
vt 0 0.9375
vn -1 2.220446049250313e-16 0
usemtl none
f 321/849/213 322/850/213 324/851/213 323/852/213
o mesh
v 0.1671875 -0.0031249999999999993 -0.2546875
v 0.1671875 -0.0031249999999999993 -0.2765625
v 0.1671875 0.028125000000000004 -0.2546875
v 0.1671875 0.028125000000000004 -0.2765625
v 0.1453125 -0.0031249999999999993 -0.2546875
v 0.1453125 -0.0031249999999999993 -0.2765625
v 0.1453125 0.028125000000000004 -0.2546875
v 0.1453125 0.028125000000000004 -0.2765625
vt 0.0625 1
vt 0 1
vt 0 0.9375
vt 0.0625 0.9375
vt 0.0625 0.9375
vt 0.0625 1
vt 0 1
vt 0 0.9375
vt 0 0.9375
vt 0.0625 0.9375
vt 0.0625 1
vt 0 1
vt 0.0625 0.9375
vt 0.0625 1
vt 0 1
vt 0 0.9375
vt 0.0625 0.9375
vt 0.0625 1
vt 0 1
vt 0 0.9375
vt 0.0625 1
vt 0 1
vt 0 0.9375
vt 0.0625 0.9375
vn -1 0 0
vn 1 0 0
vn 0 1 0
vn 0 -1 0
vn 0 0 -1
vn 0 0 1
usemtl none
f 326/853/214 325/854/214 327/855/214 328/856/214
f 331/857/215 329/858/215 330/859/215 332/860/215
f 329/861/216 325/862/216 326/863/216 330/864/216
f 328/865/217 327/866/217 331/867/217 332/868/217
f 327/869/218 325/870/218 329/871/218 331/872/218
f 330/873/219 326/874/219 328/875/219 332/876/219
o mesh
v 0.11437605169338669 0.019547753940678786 -0.29073103864146327
v 0.1106079218333821 0.011051118437210197 -0.2919553782509421
v 0.15477995450417947 -0.00026247707841649086 -0.2776030148135566
v 0.1510118246441749 -0.008759112581885083 -0.2788273544230354
v 0.10761630494143472 0.019547753940678786 -0.2699266773475068
v 0.10384817508143013 0.011051118437210197 -0.2711510169569856
v 0.14802020775222752 -0.00026247707841649086 -0.25679865351960013
v 0.1442520778922229 -0.008759112581885083 -0.25802299312907895
vt 0.0625 1
vt 0 1
vt 0 0.9375
vt 0.0625 0.9375
vt 0.0625 0.9375
vt 0.0625 1
vt 0 1
vt 0 0.9375
vt 0 0.9375
vt 0.0625 0.9375
vt 0.0625 1
vt 0 1
vt 0.0625 0.9375
vt 0.0625 1
vt 0 1
vt 0 0.9375
vt 0.0625 0.9375
vt 0.0625 1
vt 0 1
vt 0 0.9375
vt 0.0625 1
vt 0 1
vt 0 0.9375
vt 0.0625 0.9375
vn 0.3090169943749474 1.387778780781446e-17 -0.9510565162951536
vn -0.3090169943749474 -1.387778780781446e-17 0.9510565162951536
vn -0.8619499266302463 0.42261826174069933 -0.2800645083286755
vn 0.8619499266302463 -0.42261826174069933 0.2800645083286755
vn 0.40193385173382284 0.90630778703665 0.13059622501107573
vn -0.40193385173382284 -0.90630778703665 -0.13059622501107573
usemtl none
f 334/877/220 333/878/220 335/879/220 336/880/220
f 339/881/221 337/882/221 338/883/221 340/884/221
f 337/885/222 333/886/222 334/887/222 338/888/222
f 336/889/223 335/890/223 339/891/223 340/892/223
f 335/893/224 333/894/224 337/895/224 339/896/224
f 338/897/225 334/898/225 336/899/225 340/900/225
o mesh
v 0.0932288255914786 0.01755527975013807 -0.29595927919729154
v 0.09400591968903524 0.008215954455527958 -0.29570678601916905
v 0.11395402000970317 0.019461811622743172 -0.2892252553225541
v 0.11473111410725981 0.010122486328133062 -0.2889727621444316
v 0.08743475694694836 0.01755527975013807 -0.2781269695167574
v 0.08821185104450499 0.008215954455527958 -0.27787447633863493
v 0.10815995136517292 0.019461811622743172 -0.27139294564202
v 0.10893704546272956 0.010122486328133062 -0.2711404524638975
vt 0.0625 1
vt 0 1
vt 0 0.9375
vt 0.0625 0.9375
vt 0.0625 0.9375
vt 0.0625 1
vt 0 1
vt 0 0.9375
vt 0 0.9375
vt 0.0625 0.9375
vt 0.0625 1
vt 0 1
vt 0.0625 0.9375
vt 0.0625 1
vt 0 1
vt 0 0.9375
vt 0.0625 0.9375
vt 0.0625 1
vt 0 1
vt 0 0.9375
vt 0.0625 1
vt 0 1
vt 0 0.9375
vt 0.0625 0.9375
vn 0.30901699437494745 0 -0.9510565162951538
vn -0.30901699437494745 0 0.9510565162951538
vn -0.9474374591188375 -0.08715574274766193 -0.3078410914165693
vn 0.9474374591188375 0.08715574274766193 0.3078410914165693
vn -0.08289003707270794 0.9961946980917453 -0.026932605666398608
vn 0.08289003707270794 -0.9961946980917453 0.026932605666398608
usemtl none
f 342/901/226 341/902/226 343/903/226 344/904/226
f 347/905/227 345/906/227 346/907/227 348/908/227
f 345/909/228 341/910/228 342/911/228 346/912/228
f 344/913/229 343/914/229 347/915/229 348/916/229
f 343/917/230 341/918/230 345/919/230 347/920/230
f 346/921/231 342/922/231 344/923/231 348/924/231
o plane
v 0.19191461936106824 0.025 -0.2540368627109395
v 0.15625 0.025 -0.265625
v 0.19191461936106824 3.469446951953614e-18 -0.2540368627109395
v 0.15625 3.469446951953614e-18 -0.265625
vt 0.0625 0.9375
vt 0.0625 1
vt 0 1
vt 0 0.9375
vn -0.30901699437494745 2.2204460492503136e-16 0.9510565162951536
usemtl none
f 349/925/232 350/926/232 352/927/232 351/928/232
o mesh
v 0.11943297670335687 0.019547753940678786 -0.23355870120163527
v 0.11710414437585065 0.011051118437210197 -0.23035333849024692
v 0.14440396191857424 -0.00026247707841649086 -0.2679283137882134
v 0.14207512959106802 -0.008759112581885083 -0.26472295107682503
v 0.13713022345530884 0.019547753940678786 -0.22070089880773744
v 0.13480139112780262 0.011051118437210197 -0.21749553609634906
v 0.16210120867052621 -0.00026247707841649086 -0.2550705113943156
v 0.15977237634302 -0.008759112581885083 -0.2518651486829272
vt 0.0625 1
vt 0 1
vt 0 0.9375
vt 0.0625 0.9375
vt 0.0625 0.9375
vt 0.0625 1
vt 0 1
vt 0 0.9375
vt 0 0.9375
vt 0.0625 0.9375
vt 0.0625 1
vt 0 1
vt 0.0625 0.9375
vt 0.0625 1
vt 0 1
vt 0 0.9375
vt 0.0625 0.9375
vt 0.0625 1
vt 0 1
vt 0 0.9375
vt 0.0625 1
vt 0 1
vt 0 0.9375
vt 0.0625 0.9375
vn -0.8090169943749473 0 -0.5877852522924734
vn 0.8090169943749473 0 0.5877852522924734
vn -0.5327143512579705 0.42261826174069933 0.7332184018470006
vn 0.5327143512579705 -0.42261826174069933 -0.7332184018470006
vn 0.2484087816006635 0.9063077870366499 -0.34190535588142545
vn -0.2484087816006635 -0.9063077870366499 0.34190535588142545
usemtl none
f 354/929/233 353/930/233 355/931/233 356/932/233
f 359/933/234 357/934/234 358/935/234 360/936/234
f 357/937/235 353/938/235 354/939/235 358/940/235
f 356/941/236 355/942/236 359/943/236 360/944/236
f 355/945/237 353/946/237 357/947/237 359/948/237
f 358/949/238 354/950/238 356/951/238 360/952/238
o mesh
v 0.10792577220459876 0.01755527975013807 -0.21506210919827992
v 0.10840604276934568 0.008215954455527958 -0.21572314492053207
v 0.12073464677851115 0.019461811622743172 -0.2326920125833958
v 0.12121491734325807 0.010122486328133062 -0.23335304830564796
v 0.12309484084912901 0.01755527975013807 -0.20404113571779603
v 0.12357511141387595 0.008215954455527958 -0.20470217144004818
v 0.13590371542304142 0.019461811622743172 -0.22167103910291194
v 0.13638398598778834 0.010122486328133062 -0.2223320748251641
vt 0.0625 1
vt 0 1
vt 0 0.9375
vt 0.0625 0.9375
vt 0.0625 0.9375
vt 0.0625 1
vt 0 1
vt 0 0.9375
vt 0 0.9375
vt 0.0625 0.9375
vt 0.0625 1
vt 0 1
vt 0.0625 0.9375
vt 0.0625 1
vt 0 1
vt 0 0.9375
vt 0.0625 0.9375
vt 0.0625 1
vt 0 1
vt 0 0.9375
vt 0.0625 1
vt 0 1
vt 0 0.9375
vt 0.0625 0.9375
vn -0.8090169943749473 6.938893903907231e-18 -0.5877852522924734
vn 0.8090169943749473 -6.938893903907231e-18 0.5877852522924734
vn -0.5855485519502808 -0.0871557427476619 0.8059384404624418
vn 0.5855485519502808 0.0871557427476619 -0.8059384404624418
vn -0.051228860239672366 0.9961946980917453 0.07051047704022957
vn 0.051228860239672366 -0.9961946980917453 -0.07051047704022957
usemtl none
f 362/953/239 361/954/239 363/955/239 364/956/239
f 367/957/240 365/958/240 366/959/240 368/960/240
f 365/961/241 361/962/241 362/963/241 366/964/241
f 364/965/242 363/966/242 367/967/242 368/968/242
f 363/969/243 361/970/243 365/971/243 367/972/243
f 366/973/244 362/974/244 364/975/244 368/976/244
o plane
v 0.17829194696096773 0.025 -0.29596313728906054
v 0.15625 0.025 -0.265625
v 0.17829194696096773 3.469446951953614e-18 -0.29596313728906054
v 0.15625 3.469446951953614e-18 -0.265625
vt 0.0625 0.9375
vt 0.0625 1
vt 0 1
vt 0 0.9375
vn 0.8090169943749473 2.2204460492503126e-16 0.5877852522924732
usemtl none
f 369/977/245 370/978/245 372/979/245 371/980/245
o mesh
v 0.17536977654469116 0.019547753940678786 -0.22070089880773744
v 0.17769860887219738 0.011051118437210197 -0.21749553609634906
v 0.15039879132947379 -0.00026247707841649086 -0.2550705113943156
v 0.15272762365698 -0.008759112581885083 -0.2518651486829272
v 0.19306702329664313 0.019547753940678786 -0.23355870120163527
v 0.19539585562414935 0.011051118437210197 -0.23035333849024692
v 0.16809603808142576 -0.00026247707841649086 -0.2679283137882134
v 0.17042487040893198 -0.008759112581885083 -0.26472295107682503
vt 0.0625 1
vt 0 1
vt 0 0.9375
vt 0.0625 0.9375
vt 0.0625 0.9375
vt 0.0625 1
vt 0 1
vt 0 0.9375
vt 0 0.9375
vt 0.0625 0.9375
vt 0.0625 1
vt 0 1
vt 0.0625 0.9375
vt 0.0625 1
vt 0 1
vt 0 0.9375
vt 0.0625 0.9375
vt 0.0625 1
vt 0 1
vt 0 0.9375
vt 0.0625 1
vt 0 1
vt 0 0.9375
vt 0.0625 0.9375
vn -0.8090169943749473 0 0.5877852522924734
vn 0.8090169943749473 0 -0.5877852522924734
vn 0.5327143512579705 0.42261826174069933 0.7332184018470006
vn -0.5327143512579705 -0.42261826174069933 -0.7332184018470006
vn -0.2484087816006635 0.9063077870366499 -0.34190535588142545
vn 0.2484087816006635 -0.9063077870366499 0.34190535588142545
usemtl none
f 374/981/246 373/982/246 375/983/246 376/984/246
f 379/985/247 377/986/247 378/987/247 380/988/247
f 377/989/248 373/990/248 374/991/248 378/992/248
f 376/993/249 375/994/249 379/995/249 380/996/249
f 375/997/250 373/998/250 377/999/250 379/1000/250
f 378/1001/251 374/1002/251 376/1003/251 380/1004/251
o mesh
v 0.18940515915087097 0.01755527975013807 -0.20404113571779603
v 0.18892488858612405 0.008215954455527958 -0.20470217144004818
v 0.17659628457695858 0.019461811622743172 -0.22167103910291194
v 0.17611601401221166 0.010122486328133062 -0.2223320748251641
v 0.20457422779540124 0.01755527975013807 -0.21506210919827992
v 0.20409395723065432 0.008215954455527958 -0.21572314492053207
v 0.19176535322148885 0.019461811622743172 -0.2326920125833958
v 0.19128508265674193 0.010122486328133062 -0.23335304830564796
vt 0.0625 1
vt 0 1
vt 0 0.9375
vt 0.0625 0.9375
vt 0.0625 0.9375
vt 0.0625 1
vt 0 1
vt 0 0.9375
vt 0 0.9375
vt 0.0625 0.9375
vt 0.0625 1
vt 0 1
vt 0.0625 0.9375
vt 0.0625 1
vt 0 1
vt 0 0.9375
vt 0.0625 0.9375
vt 0.0625 1
vt 0 1
vt 0 0.9375
vt 0.0625 1
vt 0 1
vt 0 0.9375
vt 0.0625 0.9375
vn -0.8090169943749473 -6.938893903907231e-18 0.5877852522924734
vn 0.8090169943749473 6.938893903907231e-18 -0.5877852522924734
vn 0.5855485519502808 -0.0871557427476619 0.8059384404624418
vn -0.5855485519502808 0.0871557427476619 -0.8059384404624418
vn 0.051228860239672366 0.9961946980917453 0.07051047704022957
vn -0.051228860239672366 -0.9961946980917453 -0.07051047704022957
usemtl none
f 382/1005/252 381/1006/252 383/1007/252 384/1008/252
f 387/1009/253 385/1010/253 386/1011/253 388/1012/253
f 385/1013/254 381/1014/254 382/1015/254 386/1016/254
f 384/1017/255 383/1018/255 387/1019/255 388/1020/255
f 383/1021/256 381/1022/256 385/1023/256 387/1024/256
f 386/1025/257 382/1026/257 384/1027/257 388/1028/257
o plane
v 0.13420805303903227 0.025 -0.29596313728906054
v 0.15625 0.025 -0.265625
v 0.13420805303903227 3.469446951953614e-18 -0.29596313728906054
v 0.15625 3.469446951953614e-18 -0.265625
vt 0.0625 0.9375
vt 0.0625 1
vt 0 1
vt 0 0.9375
vn 0.8090169943749473 2.2204460492503126e-16 -0.5877852522924732
usemtl none
f 389/1029/258 390/1030/258 392/1031/258 391/1032/258
o mesh
v 0.2048836950585653 0.019547753940678786 -0.2699266773475068
v 0.20865182491856987 0.011051118437210197 -0.2711510169569856
v 0.16447979224777248 -0.00026247707841649086 -0.25679865351960013
v 0.1682479221077771 -0.008759112581885083 -0.25802299312907895
v 0.1981239483066133 0.019547753940678786 -0.29073103864146327
v 0.20189207816661792 0.011051118437210197 -0.2919553782509421
v 0.15772004549582053 -0.00026247707841649086 -0.2776030148135566
v 0.1614881753558251 -0.008759112581885083 -0.2788273544230354
vt 0.0625 1
vt 0 1
vt 0 0.9375
vt 0.0625 0.9375
vt 0.0625 0.9375
vt 0.0625 1
vt 0 1
vt 0 0.9375
vt 0 0.9375
vt 0.0625 0.9375
vt 0.0625 1
vt 0 1
vt 0.0625 0.9375
vt 0.0625 1
vt 0 1
vt 0 0.9375
vt 0.0625 0.9375
vt 0.0625 1
vt 0 1
vt 0 0.9375
vt 0.0625 1
vt 0 1
vt 0 0.9375
vt 0.0625 0.9375
vn 0.3090169943749474 -1.387778780781446e-17 0.9510565162951536
vn -0.3090169943749474 1.387778780781446e-17 -0.9510565162951536
vn 0.8619499266302463 0.42261826174069933 -0.2800645083286755
vn -0.8619499266302463 -0.42261826174069933 0.2800645083286755
vn -0.40193385173382284 0.90630778703665 0.13059622501107573
vn 0.40193385173382284 -0.90630778703665 -0.13059622501107573
usemtl none
f 394/1033/259 393/1034/259 395/1035/259 396/1036/259
f 399/1037/260 397/1038/260 398/1039/260 400/1040/260
f 397/1041/261 393/1042/261 394/1043/261 398/1044/261
f 396/1045/262 395/1046/262 399/1047/262 400/1048/262
f 395/1049/263 393/1050/263 397/1051/263 399/1052/263
f 398/1053/264 394/1054/264 396/1055/264 400/1056/264
o mesh
v 0.22506524305305164 0.01755527975013807 -0.2781269695167574
v 0.224288148955495 0.008215954455527958 -0.27787447633863493
v 0.20434004863482708 0.019461811622743172 -0.27139294564202
v 0.20356295453727044 0.010122486328133062 -0.2711404524638975
v 0.2192711744085214 0.01755527975013807 -0.29595927919729154
v 0.21849408031096476 0.008215954455527958 -0.29570678601916905
v 0.19854597999029683 0.019461811622743172 -0.2892252553225541
v 0.1977688858927402 0.010122486328133062 -0.2889727621444316
vt 0.0625 1
vt 0 1
vt 0 0.9375
vt 0.0625 0.9375
vt 0.0625 0.9375
vt 0.0625 1
vt 0 1
vt 0 0.9375
vt 0 0.9375
vt 0.0625 0.9375
vt 0.0625 1
vt 0 1
vt 0.0625 0.9375
vt 0.0625 1
vt 0 1
vt 0 0.9375
vt 0.0625 0.9375
vt 0.0625 1
vt 0 1
vt 0 0.9375
vt 0.0625 1
vt 0 1
vt 0 0.9375
vt 0.0625 0.9375
vn 0.30901699437494745 0 0.9510565162951538
vn -0.30901699437494745 0 -0.9510565162951538
vn 0.9474374591188375 -0.08715574274766193 -0.3078410914165693
vn -0.9474374591188375 0.08715574274766193 0.3078410914165693
vn 0.08289003707270794 0.9961946980917453 -0.026932605666398608
vn -0.08289003707270794 -0.9961946980917453 0.026932605666398608
usemtl none
f 402/1057/265 401/1058/265 403/1059/265 404/1060/265
f 407/1061/266 405/1062/266 406/1063/266 408/1064/266
f 405/1065/267 401/1066/267 402/1067/267 406/1068/267
f 404/1069/268 403/1070/268 407/1071/268 408/1072/268
f 403/1073/269 401/1074/269 405/1075/269 407/1076/269
f 406/1077/270 402/1078/270 404/1079/270 408/1080/270
o plane
v 0.12058538063893175 0.025 -0.2540368627109395
v 0.15625 0.025 -0.265625
v 0.12058538063893175 3.469446951953614e-18 -0.2540368627109395
v 0.15625 3.469446951953614e-18 -0.265625
vt 0.0625 0.9375
vt 0.0625 1
vt 0 1
vt 0 0.9375
vn -0.30901699437494745 2.2204460492503136e-16 -0.9510565162951536
usemtl none
f 409/1081/271 410/1082/271 412/1083/271 411/1084/271
o mesh
v 0.1671875 0.019547753940678786 -0.31320768400165727
v 0.1671875 0.011051118437210197 -0.31716973020547634
v 0.1671875 -0.00026247707841649086 -0.2707245064843143
v 0.1671875 -0.008759112581885083 -0.27468655268813336
v 0.1453125 0.019547753940678786 -0.31320768400165727
v 0.1453125 0.011051118437210197 -0.31716973020547634
v 0.1453125 -0.00026247707841649086 -0.2707245064843143
v 0.1453125 -0.008759112581885083 -0.27468655268813336
vt 0.0625 1
vt 0 1
vt 0 0.9375
vt 0.0625 0.9375
vt 0.0625 0.9375
vt 0.0625 1
vt 0 1
vt 0 0.9375
vt 0 0.9375
vt 0.0625 0.9375
vt 0.0625 1
vt 0 1
vt 0.0625 0.9375
vt 0.0625 1
vt 0 1
vt 0 0.9375
vt 0.0625 0.9375
vt 0.0625 1
vt 0 1
vt 0 0.9375
vt 0.0625 1
vt 0 1
vt 0 0.9375
vt 0.0625 0.9375
vn 1 0 0
vn -1 0 0
vn 0 0.4226182617406993 -0.9063077870366499
vn 0 -0.4226182617406993 0.9063077870366499
vn 0 0.9063077870366499 0.4226182617406993
vn 0 -0.9063077870366499 -0.4226182617406993
usemtl none
f 414/1085/272 413/1086/272 415/1087/272 416/1088/272
f 419/1089/273 417/1090/273 418/1091/273 420/1092/273
f 417/1093/274 413/1094/274 414/1095/274 418/1096/274
f 416/1097/275 415/1098/275 419/1099/275 420/1100/275
f 415/1101/276 413/1102/276 417/1103/276 419/1104/276
f 418/1105/277 414/1106/277 416/1107/277 420/1108/277
o mesh
v 0.165625 0.01755527975013807 -0.3349355063698751
v 0.165625 0.008215954455527958 -0.33411842128161584
v 0.165625 0.019461811622743172 -0.3131437473491182
v 0.165625 0.010122486328133062 -0.31232666226085887
v 0.146875 0.01755527975013807 -0.3349355063698751
v 0.146875 0.008215954455527958 -0.33411842128161584
v 0.146875 0.019461811622743172 -0.3131437473491182
v 0.146875 0.010122486328133062 -0.31232666226085887
vt 0.0625 1
vt 0 1
vt 0 0.9375
vt 0.0625 0.9375
vt 0.0625 0.9375
vt 0.0625 1
vt 0 1
vt 0 0.9375
vt 0 0.9375
vt 0.0625 0.9375
vt 0.0625 1
vt 0 1
vt 0.0625 0.9375
vt 0.0625 1
vt 0 1
vt 0 0.9375
vt 0.0625 0.9375
vt 0.0625 1
vt 0 1
vt 0 0.9375
vt 0.0625 1
vt 0 1
vt 0 0.9375
vt 0.0625 0.9375
vn 1 0 0
vn -1 0 0
vn 0 -0.08715574274766193 -0.9961946980917453
vn 0 0.08715574274766193 0.9961946980917453
vn 0 0.9961946980917453 -0.08715574274766193
vn 0 -0.9961946980917453 0.08715574274766193
usemtl none
f 422/1109/278 421/1110/278 423/1111/278 424/1112/278
f 427/1113/279 425/1114/279 426/1115/279 428/1116/279
f 425/1117/280 421/1118/280 422/1119/280 426/1120/280
f 424/1121/281 423/1122/281 427/1123/281 428/1124/281
f 423/1125/282 421/1126/282 425/1127/282 427/1128/282
f 426/1129/283 422/1130/283 424/1131/283 428/1132/283
o plane
v 0.15625 0.025 -0.22812500000000002
v 0.15625 0.025 -0.265625
v 0.15625 3.469446951953614e-18 -0.22812500000000002
v 0.15625 3.469446951953614e-18 -0.265625
vt 0.0625 0.9375
vt 0.0625 1
vt 0 1
vt 0 0.9375
vn -1 2.220446049250313e-16 0
usemtl none
f 429/1133/284 430/1134/284 432/1135/284 431/1136/284