# Made in Blockbench 5.1.4
mtllib player.mtl

o Head
v 0.25 2 0.25
v 0.25 2 -0.25
v 0.25 1.5 0.25
v 0.25 1.5 -0.25
v -0.25 2 -0.25
v -0.25 2 0.25
v -0.25 1.5 -0.25
v -0.25 1.5 0.25
vt 0.000244140625 0.874755859375
vt 0.000244140625 0.750244140625
vt 0.124755859375 0.874755859375
vt 0.000244140625 0.750244140625
vt 0.124755859375 0.750244140625
vt 0.124755859375 0.874755859375
vt 0.250244140625 0.874755859375
vt 0.250244140625 0.750244140625
vt 0.374755859375 0.874755859375
vt 0.250244140625 0.750244140625
vt 0.374755859375 0.750244140625
vt 0.374755859375 0.874755859375
vt 0.249755859375 0.875244140625
vt 0.249755859375 0.999755859375
vt 0.125244140625 0.875244140625
vt 0.249755859375 0.999755859375
vt 0.125244140625 0.999755859375
vt 0.125244140625 0.875244140625
vt 0.374755859375 0.999755859375
vt 0.374755859375 0.875244140625
vt 0.250244140625 0.999755859375
vt 0.374755859375 0.875244140625
vt 0.250244140625 0.875244140625
vt 0.250244140625 0.999755859375
vt 0.375244140625 0.874755859375
vt 0.375244140625 0.750244140625
vt 0.499755859375 0.874755859375
vt 0.375244140625 0.750244140625
vt 0.499755859375 0.750244140625
vt 0.499755859375 0.874755859375
vt 0.125244140625 0.874755859375
vt 0.125244140625 0.750244140625
vt 0.249755859375 0.874755859375
vt 0.125244140625 0.750244140625
vt 0.249755859375 0.750244140625
vt 0.249755859375 0.874755859375
vn 1 0 0
vn 1 0 0
vn -1 0 0
vn -1 0 0
vn 0 1 0
vn 0 1 0
vn 0 -1 0
vn 0 -1 0
vn 0 0 1
vn 0 0 1
vn 0 0 -1
vn 0 0 -1
usemtl m_a06d3544-15b1-f4f1-555f-648352dc4683
f 1/1/1 3/2/1 2/3/1
f 3/4/2 4/5/2 2/6/2
f 5/7/3 7/8/3 6/9/3
f 7/10/4 8/11/4 6/12/4
f 5/13/5 6/14/5 2/15/5
f 6/16/6 1/17/6 2/18/6
f 8/19/7 7/20/7 3/21/7
f 7/22/8 4/23/8 3/24/8
f 6/25/9 8/26/9 1/27/9
f 8/28/10 3/29/10 1/30/10
f 2/31/11 4/32/11 5/33/11
f 4/34/12 7/35/12 5/36/12
o Hat Layer
v 0.28125 2.03125 0.28125
v 0.28125 2.03125 -0.28125
v 0.28125 1.46875 0.28125
v 0.28125 1.46875 -0.28125
v -0.28125 2.03125 -0.28125
v -0.28125 2.03125 0.28125
v -0.28125 1.46875 -0.28125
v -0.28125 1.46875 0.28125
vt 0.500244140625 0.874755859375
vt 0.500244140625 0.750244140625
vt 0.624755859375 0.874755859375
vt 0.500244140625 0.750244140625
vt 0.624755859375 0.750244140625
vt 0.624755859375 0.874755859375
vt 0.750244140625 0.874755859375
vt 0.750244140625 0.750244140625
vt 0.874755859375 0.874755859375
vt 0.750244140625 0.750244140625
vt 0.874755859375 0.750244140625
vt 0.874755859375 0.874755859375
vt 0.749755859375 0.875244140625
vt 0.749755859375 0.999755859375
vt 0.625244140625 0.875244140625
vt 0.749755859375 0.999755859375
vt 0.625244140625 0.999755859375
vt 0.625244140625 0.875244140625
vt 0.874755859375 0.999755859375
vt 0.874755859375 0.875244140625
vt 0.750244140625 0.999755859375
vt 0.874755859375 0.875244140625
vt 0.750244140625 0.875244140625
vt 0.750244140625 0.999755859375
vt 0.875244140625 0.874755859375
vt 0.875244140625 0.750244140625
vt 0.999755859375 0.874755859375
vt 0.875244140625 0.750244140625
vt 0.999755859375 0.750244140625
vt 0.999755859375 0.874755859375
vt 0.625244140625 0.874755859375
vt 0.625244140625 0.750244140625
vt 0.749755859375 0.874755859375
vt 0.625244140625 0.750244140625
vt 0.749755859375 0.750244140625
vt 0.749755859375 0.874755859375
vn 1 0 0
vn 1 0 0
vn -1 0 0
vn -1 0 0
vn 0 1 0
vn 0 1 0
vn 0 -1 0
vn 0 -1 0
vn 0 0 1
vn 0 0 1
vn 0 0 -1
vn 0 0 -1
usemtl m_a06d3544-15b1-f4f1-555f-648352dc4683
f 9/37/13 11/38/13 10/39/13
f 11/40/14 12/41/14 10/42/14
f 13/43/15 15/44/15 14/45/15
f 15/46/16 16/47/16 14/48/16
f 13/49/17 14/50/17 10/51/17
f 14/52/18 9/53/18 10/54/18
f 16/55/19 15/56/19 11/57/19
f 15/58/20 12/59/20 11/60/20
f 14/61/21 16/62/21 9/63/21
f 16/64/22 11/65/22 9/66/22
f 10/67/23 12/68/23 13/69/23
f 12/70/24 15/71/24 13/72/24
o Body
v 0.25 1.5 0.125
v 0.25 1.5 -0.125
v 0.25 0.75 0.125
v 0.25 0.75 -0.125
v -0.25 1.5 -0.125
v -0.25 1.5 0.125
v -0.25 0.75 -0.125
v -0.25 0.75 0.125
vt 0.250244140625 0.687255859375
vt 0.250244140625 0.500244140625
vt 0.312255859375 0.687255859375
vt 0.250244140625 0.500244140625
vt 0.312255859375 0.500244140625
vt 0.312255859375 0.687255859375
vt 0.437744140625 0.687255859375
vt 0.437744140625 0.500244140625
vt 0.499755859375 0.687255859375
vt 0.437744140625 0.500244140625
vt 0.499755859375 0.500244140625
vt 0.499755859375 0.687255859375
vt 0.437255859375 0.687744140625
vt 0.437255859375 0.749755859375
vt 0.312744140625 0.687744140625
vt 0.437255859375 0.749755859375
vt 0.312744140625 0.749755859375
vt 0.312744140625 0.687744140625
vt 0.562255859375 0.749755859375
vt 0.562255859375 0.687744140625
vt 0.437744140625 0.749755859375
vt 0.562255859375 0.687744140625
vt 0.437744140625 0.687744140625
vt 0.437744140625 0.749755859375
vt 0.500244140625 0.687255859375
vt 0.500244140625 0.500244140625
vt 0.624755859375 0.687255859375
vt 0.500244140625 0.500244140625
vt 0.624755859375 0.500244140625
vt 0.624755859375 0.687255859375
vt 0.312744140625 0.687255859375
vt 0.312744140625 0.500244140625
vt 0.437255859375 0.687255859375
vt 0.312744140625 0.500244140625
vt 0.437255859375 0.500244140625
vt 0.437255859375 0.687255859375
vn 1 0 0
vn 1 0 0
vn -1 0 0
vn -1 0 0
vn 0 1 0
vn 0 1 0
vn 0 -1 0
vn 0 -1 0
vn 0 0 1
vn 0 0 1
vn 0 0 -1
vn 0 0 -1
usemtl m_a06d3544-15b1-f4f1-555f-648352dc4683
f 17/73/25 19/74/25 18/75/25
f 19/76/26 20/77/26 18/78/26
f 21/79/27 23/80/27 22/81/27
f 23/82/28 24/83/28 22/84/28
f 21/85/29 22/86/29 18/87/29
f 22/88/30 17/89/30 18/90/30
f 24/91/31 23/92/31 19/93/31
f 23/94/32 20/95/32 19/96/32
f 22/97/33 24/98/33 17/99/33
f 24/100/34 19/101/34 17/102/34
f 18/103/35 20/104/35 21/105/35
f 20/106/36 23/107/36 21/108/36
o Body Layer
v 0.265625 1.515625 0.140625
v 0.265625 1.515625 -0.140625
v 0.265625 0.734375 0.140625
v 0.265625 0.734375 -0.140625
v -0.265625 1.515625 -0.140625
v -0.265625 1.515625 0.140625
v -0.265625 0.734375 -0.140625
v -0.265625 0.734375 0.140625
vt 0.250244140625 0.437255859375
vt 0.250244140625 0.250244140625
vt 0.312255859375 0.437255859375
vt 0.250244140625 0.250244140625
vt 0.312255859375 0.250244140625
vt 0.312255859375 0.437255859375
vt 0.437744140625 0.437255859375
vt 0.437744140625 0.250244140625
vt 0.499755859375 0.437255859375
vt 0.437744140625 0.250244140625
vt 0.499755859375 0.250244140625
vt 0.499755859375 0.437255859375
vt 0.437255859375 0.437744140625
vt 0.437255859375 0.499755859375
vt 0.312744140625 0.437744140625
vt 0.437255859375 0.499755859375
vt 0.312744140625 0.499755859375
vt 0.312744140625 0.437744140625
vt 0.562255859375 0.499755859375
vt 0.562255859375 0.437744140625
vt 0.437744140625 0.499755859375
vt 0.562255859375 0.437744140625
vt 0.437744140625 0.437744140625
vt 0.437744140625 0.499755859375
vt 0.500244140625 0.437255859375
vt 0.500244140625 0.250244140625
vt 0.624755859375 0.437255859375
vt 0.500244140625 0.250244140625
vt 0.624755859375 0.250244140625
vt 0.624755859375 0.437255859375
vt 0.312744140625 0.437255859375
vt 0.312744140625 0.250244140625
vt 0.437255859375 0.437255859375
vt 0.312744140625 0.250244140625
vt 0.437255859375 0.250244140625
vt 0.437255859375 0.437255859375
vn 1 0 0
vn 1 0 0
vn -1 0 0
vn -1 0 0
vn 0 1 0
vn 0 1 0
vn 0 -1 0
vn 0 -1 0
vn 0 0 1
vn 0 0 1
vn 0 0 -1
vn 0 0 -1
usemtl m_a06d3544-15b1-f4f1-555f-648352dc4683
f 25/109/37 27/110/37 26/111/37
f 27/112/38 28/113/38 26/114/38
f 29/115/39 31/116/39 30/117/39
f 31/118/40 32/119/40 30/120/40
f 29/121/41 30/122/41 26/123/41
f 30/124/42 25/125/42 26/126/42
f 32/127/43 31/128/43 27/129/43
f 31/130/44 28/131/44 27/132/44
f 30/133/45 32/134/45 25/135/45
f 32/136/46 27/137/46 25/138/46
f 26/139/47 28/140/47 29/141/47
f 28/142/48 31/143/48 29/144/48
o Right Arm
v 0.5 1.5 0.125
v 0.5 1.5 -0.125
v 0.5 0.75 0.125
v 0.5 0.75 -0.125
v 0.25 1.5 -0.125
v 0.25 1.5 0.125
v 0.25 0.75 -0.125
v 0.25 0.75 0.125
vt 0.625244140625 0.687255859375
vt 0.625244140625 0.500244140625
vt 0.687255859375 0.687255859375
vt 0.625244140625 0.500244140625
vt 0.687255859375 0.500244140625
vt 0.687255859375 0.687255859375
vt 0.750244140625 0.687255859375
vt 0.750244140625 0.500244140625
vt 0.812255859375 0.687255859375
vt 0.750244140625 0.500244140625
vt 0.812255859375 0.500244140625
vt 0.812255859375 0.687255859375
vt 0.749755859375 0.687744140625
vt 0.749755859375 0.749755859375
vt 0.687744140625 0.687744140625
vt 0.749755859375 0.749755859375
vt 0.687744140625 0.749755859375
vt 0.687744140625 0.687744140625
vt 0.812255859375 0.749755859375
vt 0.812255859375 0.687744140625
vt 0.750244140625 0.749755859375
vt 0.812255859375 0.687744140625
vt 0.750244140625 0.687744140625
vt 0.750244140625 0.749755859375
vt 0.812744140625 0.687255859375
vt 0.812744140625 0.500244140625
vt 0.874755859375 0.687255859375
vt 0.812744140625 0.500244140625
vt 0.874755859375 0.500244140625
vt 0.874755859375 0.687255859375
vt 0.687744140625 0.687255859375
vt 0.687744140625 0.500244140625
vt 0.749755859375 0.687255859375
vt 0.687744140625 0.500244140625
vt 0.749755859375 0.500244140625
vt 0.749755859375 0.687255859375
vn 1 0 0
vn 1 0 0
vn -1 0 0
vn -1 0 0
vn 0 1 0
vn 0 1 0
vn 0 -1 0
vn 0 -1 0
vn 0 0 1
vn 0 0 1
vn 0 0 -1
vn 0 0 -1
usemtl m_a06d3544-15b1-f4f1-555f-648352dc4683
f 33/145/49 35/146/49 34/147/49
f 35/148/50 36/149/50 34/150/50
f 37/151/51 39/152/51 38/153/51
f 39/154/52 40/155/52 38/156/52
f 37/157/53 38/158/53 34/159/53
f 38/160/54 33/161/54 34/162/54
f 40/163/55 39/164/55 35/165/55
f 39/166/56 36/167/56 35/168/56
f 38/169/57 40/170/57 33/171/57
f 40/172/58 35/173/58 33/174/58
f 34/175/59 36/176/59 37/177/59
f 36/178/60 39/179/60 37/180/60
o Right Arm Layer
v 0.515625 1.515625 0.140625
v 0.515625 1.515625 -0.140625
v 0.515625 0.734375 0.140625
v 0.515625 0.734375 -0.140625
v 0.234375 1.515625 -0.140625
v 0.234375 1.515625 0.140625
v 0.234375 0.734375 -0.140625
v 0.234375 0.734375 0.140625
vt 0.625244140625 0.437255859375
vt 0.625244140625 0.250244140625
vt 0.687255859375 0.437255859375
vt 0.625244140625 0.250244140625
vt 0.687255859375 0.250244140625
vt 0.687255859375 0.437255859375
vt 0.750244140625 0.437255859375
vt 0.750244140625 0.250244140625
vt 0.812255859375 0.437255859375
vt 0.750244140625 0.250244140625
vt 0.812255859375 0.250244140625
vt 0.812255859375 0.437255859375
vt 0.749755859375 0.437744140625
vt 0.749755859375 0.499755859375
vt 0.687744140625 0.437744140625
vt 0.749755859375 0.499755859375
vt 0.687744140625 0.499755859375
vt 0.687744140625 0.437744140625
vt 0.812255859375 0.499755859375
vt 0.812255859375 0.437744140625
vt 0.750244140625 0.499755859375
vt 0.812255859375 0.437744140625
vt 0.750244140625 0.437744140625
vt 0.750244140625 0.499755859375
vt 0.812744140625 0.437255859375
vt 0.812744140625 0.250244140625
vt 0.874755859375 0.437255859375
vt 0.812744140625 0.250244140625
vt 0.874755859375 0.250244140625
vt 0.874755859375 0.437255859375
vt 0.687744140625 0.437255859375
vt 0.687744140625 0.250244140625
vt 0.749755859375 0.437255859375
vt 0.687744140625 0.250244140625
vt 0.749755859375 0.250244140625
vt 0.749755859375 0.437255859375
vn 1 0 0
vn 1 0 0
vn -1 0 0
vn -1 0 0
vn 0 1 0
vn 0 1 0
vn 0 -1 0
vn 0 -1 0
vn 0 0 1
vn 0 0 1
vn 0 0 -1
vn 0 0 -1
usemtl m_a06d3544-15b1-f4f1-555f-648352dc4683
f 41/181/61 43/182/61 42/183/61
f 43/184/62 44/185/62 42/186/62
f 45/187/63 47/188/63 46/189/63
f 47/190/64 48/191/64 46/192/64
f 45/193/65 46/194/65 42/195/65
f 46/196/66 41/197/66 42/198/66
f 48/199/67 47/200/67 43/201/67
f 47/202/68 44/203/68 43/204/68
f 46/205/69 48/206/69 41/207/69
f 48/208/70 43/209/70 41/210/70
f 42/211/71 44/212/71 45/213/71
f 44/214/72 47/215/72 45/216/72
o Left Arm
v -0.25 1.5 0.125
v -0.25 1.5 -0.125
v -0.25 0.75 0.125
v -0.25 0.75 -0.125
v -0.5 1.5 -0.125
v -0.5 1.5 0.125
v -0.5 0.75 -0.125
v -0.5 0.75 0.125
vt 0.500244140625 0.187255859375
vt 0.500244140625 0.000244140625
vt 0.562255859375 0.187255859375
vt 0.500244140625 0.000244140625
vt 0.562255859375 0.000244140625
vt 0.562255859375 0.187255859375
vt 0.625244140625 0.187255859375
vt 0.625244140625 0.000244140625
vt 0.687255859375 0.187255859375
vt 0.625244140625 0.000244140625
vt 0.687255859375 0.000244140625
vt 0.687255859375 0.187255859375
vt 0.624755859375 0.187744140625
vt 0.624755859375 0.249755859375
vt 0.562744140625 0.187744140625
vt 0.624755859375 0.249755859375
vt 0.562744140625 0.249755859375
vt 0.562744140625 0.187744140625
vt 0.687255859375 0.249755859375
vt 0.687255859375 0.187744140625
vt 0.625244140625 0.249755859375
vt 0.687255859375 0.187744140625
vt 0.625244140625 0.187744140625
vt 0.625244140625 0.249755859375
vt 0.687744140625 0.187255859375
vt 0.687744140625 0.000244140625
vt 0.749755859375 0.187255859375
vt 0.687744140625 0.000244140625
vt 0.749755859375 0.000244140625
vt 0.749755859375 0.187255859375
vt 0.562744140625 0.187255859375
vt 0.562744140625 0.000244140625
vt 0.624755859375 0.187255859375
vt 0.562744140625 0.000244140625
vt 0.624755859375 0.000244140625
vt 0.624755859375 0.187255859375
vn 1 0 0
vn 1 0 0
vn -1 0 0
vn -1 0 0
vn 0 1 0
vn 0 1 0
vn 0 -1 0
vn 0 -1 0
vn 0 0 1
vn 0 0 1
vn 0 0 -1
vn 0 0 -1
usemtl m_a06d3544-15b1-f4f1-555f-648352dc4683
f 49/217/73 51/218/73 50/219/73
f 51/220/74 52/221/74 50/222/74
f 53/223/75 55/224/75 54/225/75
f 55/226/76 56/227/76 54/228/76
f 53/229/77 54/230/77 50/231/77
f 54/232/78 49/233/78 50/234/78
f 56/235/79 55/236/79 51/237/79
f 55/238/80 52/239/80 51/240/80
f 54/241/81 56/242/81 49/243/81
f 56/244/82 51/245/82 49/246/82
f 50/247/83 52/248/83 53/249/83
f 52/250/84 55/251/84 53/252/84
o Left Arm Layer
v -0.234375 1.515625 0.140625
v -0.234375 1.515625 -0.140625
v -0.234375 0.734375 0.140625
v -0.234375 0.734375 -0.140625
v -0.515625 1.515625 -0.140625
v -0.515625 1.515625 0.140625
v -0.515625 0.734375 -0.140625
v -0.515625 0.734375 0.140625
vt 0.750244140625 0.187255859375
vt 0.750244140625 0.000244140625
vt 0.812255859375 0.187255859375
vt 0.750244140625 0.000244140625
vt 0.812255859375 0.000244140625
vt 0.812255859375 0.187255859375
vt 0.875244140625 0.187255859375
vt 0.875244140625 0.000244140625
vt 0.937255859375 0.187255859375
vt 0.875244140625 0.000244140625
vt 0.937255859375 0.000244140625
vt 0.937255859375 0.187255859375
vt 0.874755859375 0.187744140625
vt 0.874755859375 0.249755859375
vt 0.812744140625 0.187744140625
vt 0.874755859375 0.249755859375
vt 0.812744140625 0.249755859375
vt 0.812744140625 0.187744140625
vt 0.937255859375 0.249755859375
vt 0.937255859375 0.187744140625
vt 0.875244140625 0.249755859375
vt 0.937255859375 0.187744140625
vt 0.875244140625 0.187744140625
vt 0.875244140625 0.249755859375
vt 0.937744140625 0.187255859375
vt 0.937744140625 0.000244140625
vt 0.999755859375 0.187255859375
vt 0.937744140625 0.000244140625
vt 0.999755859375 0.000244140625
vt 0.999755859375 0.187255859375
vt 0.812744140625 0.187255859375
vt 0.812744140625 0.000244140625
vt 0.874755859375 0.187255859375
vt 0.812744140625 0.000244140625
vt 0.874755859375 0.000244140625
vt 0.874755859375 0.187255859375
vn 1 0 0
vn 1 0 0
vn -1 0 0
vn -1 0 0
vn 0 1 0
vn 0 1 0
vn 0 -1 0
vn 0 -1 0
vn 0 0 1
vn 0 0 1
vn 0 0 -1
vn 0 0 -1
usemtl m_a06d3544-15b1-f4f1-555f-648352dc4683
f 57/253/85 59/254/85 58/255/85
f 59/256/86 60/257/86 58/258/86
f 61/259/87 63/260/87 62/261/87
f 63/262/88 64/263/88 62/264/88
f 61/265/89 62/266/89 58/267/89
f 62/268/90 57/269/90 58/270/90
f 64/271/91 63/272/91 59/273/91
f 63/274/92 60/275/92 59/276/92
f 62/277/93 64/278/93 57/279/93
f 64/280/94 59/281/94 57/282/94
f 58/283/95 60/284/95 61/285/95
f 60/286/96 63/287/96 61/288/96
o Right Leg
v 0.24375000596046448 0.75 0.125
v 0.24375000596046448 0.75 -0.125
v 0.24375000596046448 0 0.125
v 0.24375000596046448 0 -0.125
v -0.0062500000931322575 0.75 -0.125
v -0.0062500000931322575 0.75 0.125
v -0.0062500000931322575 0 -0.125
v -0.0062500000931322575 0 0.125
vt 0.000244140625 0.687255859375
vt 0.000244140625 0.500244140625
vt 0.062255859375 0.687255859375
vt 0.000244140625 0.500244140625
vt 0.062255859375 0.500244140625
vt 0.062255859375 0.687255859375
vt 0.125244140625 0.687255859375
vt 0.125244140625 0.500244140625
vt 0.187255859375 0.687255859375
vt 0.125244140625 0.500244140625
vt 0.187255859375 0.500244140625
vt 0.187255859375 0.687255859375
vt 0.124755859375 0.687744140625
vt 0.124755859375 0.749755859375
vt 0.062744140625 0.687744140625
vt 0.124755859375 0.749755859375
vt 0.062744140625 0.749755859375
vt 0.062744140625 0.687744140625
vt 0.187255859375 0.749755859375
vt 0.187255859375 0.687744140625
vt 0.125244140625 0.749755859375
vt 0.187255859375 0.687744140625
vt 0.125244140625 0.687744140625
vt 0.125244140625 0.749755859375
vt 0.187744140625 0.687255859375
vt 0.187744140625 0.500244140625
vt 0.249755859375 0.687255859375
vt 0.187744140625 0.500244140625
vt 0.249755859375 0.500244140625
vt 0.249755859375 0.687255859375
vt 0.062744140625 0.687255859375
vt 0.062744140625 0.500244140625
vt 0.124755859375 0.687255859375
vt 0.062744140625 0.500244140625
vt 0.124755859375 0.500244140625
vt 0.124755859375 0.687255859375
vn 1 0 0
vn 1 0 0
vn -1 0 0
vn -1 0 0
vn 0 1 0
vn 0 1 0
vn 0 -1 0
vn 0 -1 0
vn 0 0 1
vn 0 0 1
vn 0 0 -1
vn 0 0 -1
usemtl m_a06d3544-15b1-f4f1-555f-648352dc4683
f 65/289/97 67/290/97 66/291/97
f 67/292/98 68/293/98 66/294/98
f 69/295/99 71/296/99 70/297/99
f 71/298/100 72/299/100 70/300/100
f 69/301/101 70/302/101 66/303/101
f 70/304/102 65/305/102 66/306/102
f 72/307/103 71/308/103 67/309/103
f 71/310/104 68/311/104 67/312/104
f 70/313/105 72/314/105 65/315/105
f 72/316/106 67/317/106 65/318/106
f 66/319/107 68/320/107 69/321/107
f 68/322/108 71/323/108 69/324/108
o Right Leg Layer
v 0.2593750059604645 0.765625 0.140625
v 0.2593750059604645 0.765625 -0.140625
v 0.2593750059604645 -0.015625 0.140625
v 0.2593750059604645 -0.015625 -0.140625
v -0.02187499962747097 0.765625 -0.140625
v -0.02187499962747097 0.765625 0.140625
v -0.02187499962747097 -0.015625 -0.140625
v -0.02187499962747097 -0.015625 0.140625
vt 0.000244140625 0.437255859375
vt 0.000244140625 0.250244140625
vt 0.062255859375 0.437255859375
vt 0.000244140625 0.250244140625
vt 0.062255859375 0.250244140625
vt 0.062255859375 0.437255859375
vt 0.125244140625 0.437255859375
vt 0.125244140625 0.250244140625
vt 0.187255859375 0.437255859375
vt 0.125244140625 0.250244140625
vt 0.187255859375 0.250244140625
vt 0.187255859375 0.437255859375
vt 0.124755859375 0.437744140625
vt 0.124755859375 0.499755859375
vt 0.062744140625 0.437744140625
vt 0.124755859375 0.499755859375
vt 0.062744140625 0.499755859375
vt 0.062744140625 0.437744140625
vt 0.187255859375 0.499755859375
vt 0.187255859375 0.437744140625
vt 0.125244140625 0.499755859375
vt 0.187255859375 0.437744140625
vt 0.125244140625 0.437744140625
vt 0.125244140625 0.499755859375
vt 0.187744140625 0.437255859375
vt 0.187744140625 0.250244140625
vt 0.249755859375 0.437255859375
vt 0.187744140625 0.250244140625
vt 0.249755859375 0.250244140625
vt 0.249755859375 0.437255859375
vt 0.062744140625 0.437255859375
vt 0.062744140625 0.250244140625
vt 0.124755859375 0.437255859375
vt 0.062744140625 0.250244140625
vt 0.124755859375 0.250244140625
vt 0.124755859375 0.437255859375
vn 1 0 0
vn 1 0 0
vn -1 0 0
vn -1 0 0
vn 0 1 0
vn 0 1 0
vn 0 -1 0
vn 0 -1 0
vn 0 0 1
vn 0 0 1
vn 0 0 -1
vn 0 0 -1
usemtl m_a06d3544-15b1-f4f1-555f-648352dc4683
f 73/325/109 75/326/109 74/327/109
f 75/328/110 76/329/110 74/330/110
f 77/331/111 79/332/111 78/333/111
f 79/334/112 80/335/112 78/336/112
f 77/337/113 78/338/113 74/339/113
f 78/340/114 73/341/114 74/342/114
f 80/343/115 79/344/115 75/345/115
f 79/346/116 76/347/116 75/348/116
f 78/349/117 80/350/117 73/351/117
f 80/352/118 75/353/118 73/354/118
f 74/355/119 76/356/119 77/357/119
f 76/358/120 79/359/120 77/360/120
o Left Leg
v 0.0062500000931322575 0.75 0.125
v 0.0062500000931322575 0.75 -0.125
v 0.0062500000931322575 0 0.125
v 0.0062500000931322575 0 -0.125
v -0.24375000596046448 0.75 -0.125
v -0.24375000596046448 0.75 0.125
v -0.24375000596046448 0 -0.125
v -0.24375000596046448 0 0.125
vt 0.250244140625 0.187255859375
vt 0.250244140625 0.000244140625
vt 0.312255859375 0.187255859375
vt 0.250244140625 0.000244140625
vt 0.312255859375 0.000244140625
vt 0.312255859375 0.187255859375
vt 0.375244140625 0.187255859375
vt 0.375244140625 0.000244140625
vt 0.437255859375 0.187255859375
vt 0.375244140625 0.000244140625
vt 0.437255859375 0.000244140625
vt 0.437255859375 0.187255859375
vt 0.374755859375 0.187744140625
vt 0.374755859375 0.249755859375
vt 0.312744140625 0.187744140625
vt 0.374755859375 0.249755859375
vt 0.312744140625 0.249755859375
vt 0.312744140625 0.187744140625
vt 0.437255859375 0.249755859375
vt 0.437255859375 0.187744140625
vt 0.375244140625 0.249755859375
vt 0.437255859375 0.187744140625
vt 0.375244140625 0.187744140625
vt 0.375244140625 0.249755859375
vt 0.437744140625 0.187255859375
vt 0.437744140625 0.000244140625
vt 0.499755859375 0.187255859375
vt 0.437744140625 0.000244140625
vt 0.499755859375 0.000244140625
vt 0.499755859375 0.187255859375
vt 0.312744140625 0.187255859375
vt 0.312744140625 0.000244140625
vt 0.374755859375 0.187255859375
vt 0.312744140625 0.000244140625
vt 0.374755859375 0.000244140625
vt 0.374755859375 0.187255859375
vn 1 0 0
vn 1 0 0
vn -1 0 0
vn -1 0 0
vn 0 1 0
vn 0 1 0
vn 0 -1 0
vn 0 -1 0
vn 0 0 1
vn 0 0 1
vn 0 0 -1
vn 0 0 -1
usemtl m_a06d3544-15b1-f4f1-555f-648352dc4683
f 81/361/121 83/362/121 82/363/121
f 83/364/122 84/365/122 82/366/122
f 85/367/123 87/368/123 86/369/123
f 87/370/124 88/371/124 86/372/124
f 85/373/125 86/374/125 82/375/125
f 86/376/126 81/377/126 82/378/126
f 88/379/127 87/380/127 83/381/127
f 87/382/128 84/383/128 83/384/128
f 86/385/129 88/386/129 81/387/129
f 88/388/130 83/389/130 81/390/130
f 82/391/131 84/392/131 85/393/131
f 84/394/132 87/395/132 85/396/132
o Left Leg Layer
v 0.02187499962747097 0.765625 0.140625
v 0.02187499962747097 0.765625 -0.140625
v 0.02187499962747097 -0.015625 0.140625
v 0.02187499962747097 -0.015625 -0.140625
v -0.2593750059604645 0.765625 -0.140625
v -0.2593750059604645 0.765625 0.140625
v -0.2593750059604645 -0.015625 -0.140625
v -0.2593750059604645 -0.015625 0.140625
vt 0.000244140625 0.187255859375
vt 0.000244140625 0.000244140625
vt 0.062255859375 0.187255859375
vt 0.000244140625 0.000244140625
vt 0.062255859375 0.000244140625
vt 0.062255859375 0.187255859375
vt 0.125244140625 0.187255859375
vt 0.125244140625 0.000244140625
vt 0.187255859375 0.187255859375
vt 0.125244140625 0.000244140625
vt 0.187255859375 0.000244140625
vt 0.187255859375 0.187255859375
vt 0.124755859375 0.187744140625
vt 0.124755859375 0.249755859375
vt 0.062744140625 0.187744140625
vt 0.124755859375 0.249755859375
vt 0.062744140625 0.249755859375
vt 0.062744140625 0.187744140625
vt 0.187255859375 0.249755859375
vt 0.187255859375 0.187744140625
vt 0.125244140625 0.249755859375
vt 0.187255859375 0.187744140625
vt 0.125244140625 0.187744140625
vt 0.125244140625 0.249755859375
vt 0.187744140625 0.187255859375
vt 0.187744140625 0.000244140625
vt 0.249755859375 0.187255859375
vt 0.187744140625 0.000244140625
vt 0.249755859375 0.000244140625
vt 0.249755859375 0.187255859375
vt 0.062744140625 0.187255859375
vt 0.062744140625 0.000244140625
vt 0.124755859375 0.187255859375
vt 0.062744140625 0.000244140625
vt 0.124755859375 0.000244140625
vt 0.124755859375 0.187255859375
vn 1 0 0
vn 1 0 0
vn -1 0 0
vn -1 0 0
vn 0 1 0
vn 0 1 0
vn 0 -1 0
vn 0 -1 0
vn 0 0 1
vn 0 0 1
vn 0 0 -1
vn 0 0 -1
usemtl m_a06d3544-15b1-f4f1-555f-648352dc4683
f 89/397/133 91/398/133 90/399/133
f 91/400/134 92/401/134 90/402/134
f 93/403/135 95/404/135 94/405/135
f 95/406/136 96/407/136 94/408/136
f 93/409/137 94/410/137 90/411/137
f 94/412/138 89/413/138 90/414/138
f 96/415/139 95/416/139 91/417/139
f 95/418/140 92/419/140 91/420/140
f 94/421/141 96/422/141 89/423/141
f 96/424/142 91/425/142 89/426/142
f 90/427/143 92/428/143 93/429/143
f 92/430/144 95/431/144 93/432/144