# Made in Blockbench 5.1.4
mtllib model.mtl

o Object_5
v 0.25 0 -0.5
v 0.25 0.5 -0.5
v 0.25 0.5 0.1875
v 0.25 0 0.1875
v -0.25 0.5 0.1875
v -0.25 0.5 -0.5
v -0.25 0 -0.5
v -0.25 0 0.1875
vt 0.171875 0.875
vt 0.171875 1
vt 0 1
vt 0.171875 0.875
vt 0 1
vt 0 0.875
vt 0.171875 0.859375
vt 0 0.859375
vt 0 0.734375
vt 0.171875 0.859375
vt 0 0.734375
vt 0.171875 0.734375
vt 0.3125 0.828125
vt 0.3125 1
vt 0.1875 1
vt 0.3125 0.828125
vt 0.1875 1
vt 0.1875 0.828125
vt 0.1875 0.640625
vt 0.3125 0.640625
vt 0.3125 0.8125
vt 0.1875 0.640625
vt 0.3125 0.8125
vt 0.1875 0.8125
vt 0.125 0.71875
vt 0 0.71875
vt 0 0.59375
vt 0.125 0.71875
vt 0 0.59375
vt 0.125 0.59375
vt 0.453125 0.875
vt 0.453125 1
vt 0.328125 1
vt 0.453125 0.875
vt 0.328125 1
vt 0.328125 0.875
vn 1 0 0
vn 1 0 0
vn -1 0 0
vn -1 0 0
vn 0 1 0
vn 0 1 0
vn 0 -1 0
vn 0 -1 0
vn 0 0 -1
vn 0 0 -1
vn 0 0 1
vn 0 0 1
usemtl m_6f956683-b970-c6dd-16ba-b4e79db439ab
f 1/1/1 2/2/1 3/3/1
f 1/4/2 3/5/2 4/6/2
f 5/7/3 6/8/3 7/9/3
f 5/10/4 7/11/4 8/12/4
f 3/13/5 2/14/5 6/15/5
f 3/16/6 6/17/6 5/18/6
f 7/19/7 1/20/7 4/21/7
f 7/22/8 4/23/8 8/24/8
f 6/25/9 2/26/9 1/27/9
f 6/28/10 1/29/10 7/30/10
f 4/31/11 3/32/11 5/33/11
f 4/34/12 5/35/12 8/36/12
o Object_7
v 0.25 0.5 -0.125
v 0.25 1 -0.125
v 0.25 1 0.375
v 0.25 0.5 0.375
v -0.25 1 0.375
v -0.25 1 -0.125
v -0.25 0.5 -0.125
v -0.25 0.5 0.375
vt 0.453125 0.734375
vt 0.453125 0.859375
vt 0.328125 0.859375
vt 0.453125 0.734375
vt 0.328125 0.859375
vt 0.328125 0.734375
vt 0.453125 0.71875
vt 0.328125 0.71875
vt 0.328125 0.59375
vt 0.453125 0.71875
vt 0.328125 0.59375
vt 0.453125 0.59375
vt 0.265625 0.5
vt 0.265625 0.625
vt 0.140625 0.625
vt 0.265625 0.5
vt 0.140625 0.625
vt 0.140625 0.5
vt 0 0.453125
vt 0.125 0.453125
vt 0.125 0.578125
vt 0 0.453125
vt 0.125 0.578125
vt 0 0.578125
vt 0.40625 0.578125
vt 0.28125 0.578125
vt 0.28125 0.453125
vt 0.40625 0.578125
vt 0.28125 0.453125
vt 0.40625 0.453125
vt 0.546875 0.453125
vt 0.546875 0.578125
vt 0.421875 0.578125
vt 0.546875 0.453125
vt 0.421875 0.578125
vt 0.421875 0.453125
vn 1 0 0
vn 1 0 0
vn -1 0 0
vn -1 0 0
vn 0 1 0
vn 0 1 0
vn 0 -1 0
vn 0 -1 0
vn 0 0 -1
vn 0 0 -1
vn 0 0 1
vn 0 0 1
usemtl m_6f956683-b970-c6dd-16ba-b4e79db439ab
f 9/37/13 10/38/13 11/39/13
f 9/40/14 11/41/14 12/42/14
f 13/43/15 14/44/15 15/45/15
f 13/46/16 15/47/16 16/48/16
f 11/49/17 10/50/17 14/51/17
f 11/52/18 14/53/18 13/54/18
f 15/55/19 9/56/19 12/57/19
f 15/58/20 12/59/20 16/60/20
f 14/61/21 10/62/21 9/63/21
f 14/64/22 9/65/22 15/66/22
f 12/67/23 11/68/23 13/69/23
f 12/70/24 13/71/24 16/72/24
o Object_10
v 0.3125 0.1875 -0.4375
v 0.3125 0.5 -0.4375
v 0.3125 0.5 0.125
v 0.3125 0.1875 0.125
v 0.25 0.5 0.125
v 0.25 0.5 -0.4375
v 0.25 0.1875 -0.4375
v 0.25 0.1875 0.125
vt 0.609375 0.921875
vt 0.609375 1
vt 0.46875 1
vt 0.609375 0.921875
vt 0.46875 1
vt 0.46875 0.921875
vt 0.609375 1
vt 0.46875 1
vt 0.46875 0.921875
vt 0.609375 1
vt 0.46875 0.921875
vt 0.609375 0.921875
vt 0.40625 0.296875
vt 0.40625 0.4375
vt 0.390625 0.4375
vt 0.40625 0.296875
vt 0.390625 0.4375
vt 0.390625 0.296875
vt 0.421875 0.296875
vt 0.4375 0.296875
vt 0.4375 0.4375
vt 0.421875 0.296875
vt 0.4375 0.4375
vt 0.421875 0.4375
vt 0.15625 0.71875
vt 0.140625 0.71875
vt 0.140625 0.640625
vt 0.15625 0.71875
vt 0.140625 0.640625
vt 0.15625 0.640625
vt 0.609375 0.421875
vt 0.609375 0.5
vt 0.59375 0.5
vt 0.609375 0.421875
vt 0.59375 0.5
vt 0.59375 0.421875
vn 1 0 0
vn 1 0 0
vn -1 0 0
vn -1 0 0
vn 0 1 0
vn 0 1 0
vn 0 -1 0
vn 0 -1 0
vn 0 0 -1
vn 0 0 -1
vn 0 0 1
vn 0 0 1
usemtl m_6f956683-b970-c6dd-16ba-b4e79db439ab
f 17/73/25 18/74/25 19/75/25
f 17/76/26 19/77/26 20/78/26
f 21/79/27 22/80/27 23/81/27
f 21/82/28 23/83/28 24/84/28
f 19/85/29 18/86/29 22/87/29
f 19/88/30 22/89/30 21/90/30
f 23/91/31 17/92/31 20/93/31
f 23/94/32 20/95/32 24/96/32
f 22/97/33 18/98/33 17/99/33
f 22/100/34 17/101/34 23/102/34
f 20/103/35 19/104/35 21/105/35
f 20/106/36 21/107/36 24/108/36
o Object_12
v -0.25 0.1875 -0.4375
v -0.25 0.5 -0.4375
v -0.25 0.5 0.125
v -0.25 0.1875 0.125
v -0.3125 0.5 0.125
v -0.3125 0.5 -0.4375
v -0.3125 0.1875 -0.4375
v -0.3125 0.1875 0.125
vt 0.609375 0.921875
vt 0.609375 1
vt 0.46875 1
vt 0.609375 0.921875
vt 0.46875 1
vt 0.46875 0.921875
vt 0.609375 0.71875
vt 0.46875 0.71875
vt 0.46875 0.640625
vt 0.609375 0.71875
vt 0.46875 0.640625
vt 0.609375 0.640625
vt 0.578125 0.421875
vt 0.578125 0.5625
vt 0.5625 0.5625
vt 0.578125 0.421875
vt 0.5625 0.5625
vt 0.5625 0.421875
vt 0.453125 0.296875
vt 0.46875 0.296875
vt 0.46875 0.4375
vt 0.453125 0.296875
vt 0.46875 0.4375
vt 0.453125 0.4375
vt 0.609375 0.40625
vt 0.59375 0.40625
vt 0.59375 0.328125
vt 0.609375 0.40625
vt 0.59375 0.328125
vt 0.609375 0.328125
vt 0.15625 0.3125
vt 0.15625 0.390625
vt 0.140625 0.390625
vt 0.15625 0.3125
vt 0.140625 0.390625
vt 0.140625 0.3125
vn 1 0 0
vn 1 0 0
vn -1 0 0
vn -1 0 0
vn 0 1 0
vn 0 1 0
vn 0 -1 0
vn 0 -1 0
vn 0 0 -1
vn 0 0 -1
vn 0 0 1
vn 0 0 1
usemtl m_6f956683-b970-c6dd-16ba-b4e79db439ab
f 25/109/37 26/110/37 27/111/37
f 25/112/38 27/113/38 28/114/38
f 29/115/39 30/116/39 31/117/39
f 29/118/40 31/119/40 32/120/40
f 27/121/41 26/122/41 30/123/41
f 27/124/42 30/125/42 29/126/42
f 31/127/43 25/128/43 28/129/43
f 31/130/44 28/131/44 32/132/44
f 30/133/45 26/134/45 25/135/45
f 30/136/46 25/137/46 31/138/46
f 28/139/47 27/140/47 29/141/47
f 28/142/48 29/143/48 32/144/48
o Object_15
v 0.25 0.625 0.375
v 0.25 0.6875 0.375
v 0.25 0.6875 0.5625
v 0.25 0.625 0.5625
v -0.25 0.6875 0.5625
v -0.25 0.6875 0.375
v -0.25 0.625 0.375
v -0.25 0.625 0.5625
vt 0.515625 0.609375
vt 0.515625 0.625
vt 0.46875 0.625
vt 0.515625 0.609375
vt 0.46875 0.625
vt 0.46875 0.609375
vt 0.53125 0.4375
vt 0.484375 0.4375
vt 0.484375 0.421875
vt 0.53125 0.4375
vt 0.484375 0.421875
vt 0.53125 0.421875
vt 0.265625 0.4375
vt 0.265625 0.484375
vt 0.140625 0.484375
vt 0.265625 0.4375
vt 0.140625 0.484375
vt 0.140625 0.4375
vt 0 0.390625
vt 0.125 0.390625
vt 0.125 0.4375
vt 0 0.390625
vt 0.125 0.4375
vt 0 0.4375
vt 0.71875 0.5625
vt 0.59375 0.5625
vt 0.59375 0.546875
vt 0.71875 0.5625
vt 0.59375 0.546875
vt 0.71875 0.546875
vt 0.71875 0.546875
vt 0.71875 0.5625
vt 0.59375 0.5625
vt 0.71875 0.546875
vt 0.59375 0.5625
vt 0.59375 0.546875
vn 1 0 0
vn 1 0 0
vn -1 0 0
vn -1 0 0
vn 0 1 0
vn 0 1 0
vn 0 -1 0
vn 0 -1 0
vn 0 0 -1
vn 0 0 -1
vn 0 0 1
vn 0 0 1
usemtl m_6f956683-b970-c6dd-16ba-b4e79db439ab
f 33/145/49 34/146/49 35/147/49
f 33/148/50 35/149/50 36/150/50
f 37/151/51 38/152/51 39/153/51
f 37/154/52 39/155/52 40/156/52
f 35/157/53 34/158/53 38/159/53
f 35/160/54 38/161/54 37/162/54
f 39/163/55 33/164/55 36/165/55
f 39/166/56 36/167/56 40/168/56
f 38/169/57 34/170/57 33/171/57
f 38/172/58 33/173/58 39/174/58
f 36/175/59 35/176/59 37/177/59
f 36/178/60 37/179/60 40/180/60
o Object_17
v 0.1875 0.5625 0.375
v 0.1875 0.625 0.375
v 0.1875 0.625 0.5625
v 0.1875 0.5625 0.5625
v -0.1875 0.625 0.5625
v -0.1875 0.625 0.375
v -0.1875 0.5625 0.375
v -0.1875 0.5625 0.5625
vt 0.21875 0.375
vt 0.21875 0.390625
vt 0.171875 0.390625
vt 0.21875 0.375
vt 0.171875 0.390625
vt 0.171875 0.375
vt 0.046875 0.375
vt 0 0.375
vt 0 0.359375
vt 0.046875 0.375
vt 0 0.359375
vt 0.046875 0.359375
vt 0.65625 0.578125
vt 0.65625 0.625
vt 0.5625 0.625
vt 0.65625 0.578125
vt 0.5625 0.625
vt 0.5625 0.578125
vt 0.5625 0.578125
vt 0.65625 0.578125
vt 0.65625 0.625
vt 0.5625 0.578125
vt 0.65625 0.625
vt 0.5625 0.625
vt 0.578125 0.40625
vt 0.484375 0.40625
vt 0.484375 0.390625
vt 0.578125 0.40625
vt 0.484375 0.390625
vt 0.578125 0.390625
vt 0.578125 0.390625
vt 0.578125 0.40625
vt 0.484375 0.40625
vt 0.578125 0.390625
vt 0.484375 0.40625
vt 0.484375 0.390625
vn 1 0 0
vn 1 0 0
vn -1 0 0
vn -1 0 0
vn 0 1 0
vn 0 1 0
vn 0 -1 0
vn 0 -1 0
vn 0 0 -1
vn 0 0 -1
vn 0 0 1
vn 0 0 1
usemtl m_6f956683-b970-c6dd-16ba-b4e79db439ab
f 41/181/61 42/182/61 43/183/61
f 41/184/62 43/185/62 44/186/62
f 45/187/63 46/188/63 47/189/63
f 45/190/64 47/191/64 48/192/64
f 43/193/65 42/194/65 46/195/65
f 43/196/66 46/197/66 45/198/66
f 47/199/67 41/200/67 44/201/67
f 47/202/68 44/203/68 48/204/68
f 46/205/69 42/206/69 41/207/69
f 46/208/70 41/209/70 47/210/70
f 44/211/71 43/212/71 45/213/71
f 44/214/72 45/215/72 48/216/72